<?xml version="1.0" standalone="no"?>
<!DOCTYPE svg PUBLIC "-//W3C//DTD SVG 20010904//EN"
 "http://www.w3.org/TR/2001/REC-SVG-20010904/DTD/svg10.dtd">
<svg version="1.0" xmlns="http://www.w3.org/2000/svg"
 width="1024.000000pt" height="1024.000000pt" viewBox="0 0 1024.000000 1024.000000"
 preserveAspectRatio="xMidYMid meet">
<metadata>
Created by potrace 1.14, written by Peter Selinger 2001-2017
</metadata>
<g transform="translate(0.000000,1024.000000) scale(0.100000,-0.100000)"
fill="#000000" stroke="none">
<path d="M0 5120 l0 -5120 4720 0 4720 0 0 80 0 80 320 0 320 0 0 -80 0 -80
80 0 80 0 0 5120 0 5120 -5120 0 -5120 0 0 -5120z m5580 2810 c365 -120 670
-217 908 -289 56 -18 102 -34 102 -37 0 -11 -97 -322 -244 -784 -36 -113 -86
-275 -111 -360 -26 -85 -94 -306 -151 -490 -58 -184 -121 -387 -141 -450 -19
-63 -64 -205 -98 -315 -155 -491 -298 -984 -290 -1003 2 -7 1 -11 -3 -8 -5 3
-25 -50 -44 -117 -20 -67 -62 -205 -93 -307 -77 -250 -105 -359 -94 -366 12
-7 63 17 389 181 331 166 321 161 313 168 -3 4 -1 7 5 7 7 0 12 5 12 11 0 5
-4 7 -10 4 -5 -3 -10 -1 -10 5 0 6 -4 9 -9 5 -6 -3 -14 2 -19 12 -10 17 -52
26 -52 11 0 -4 5 -8 10 -8 6 0 10 -5 10 -12 0 -6 -7 -4 -18 5 -10 10 -22 14
-26 10 -4 -4 -4 0 0 10 3 9 10 15 14 12 5 -3 11 -1 15 5 3 5 1 10 -5 10 -7 0
-10 6 -8 13 3 6 -10 28 -29 47 -19 19 -33 28 -31 20 2 -8 7 -18 11 -21 5 -4 7
-15 5 -25 -3 -15 -6 -13 -22 11 -11 16 -19 36 -19 43 0 8 -11 18 -25 23 -23 9
-23 10 -5 27 10 9 12 13 4 7 -17 -12 -15 -13 -34 4 -15 12 -17 11 -17 -3 0
-10 5 -14 10 -11 6 3 10 1 10 -4 0 -14 -6 -14 -31 -1 -10 6 -19 17 -19 25 0 8
-8 15 -17 15 -14 0 -15 2 -5 9 10 6 9 10 -7 14 -12 3 -21 12 -21 21 0 10 -6
13 -15 10 -9 -4 -15 0 -15 10 0 14 -11 20 -32 17 -4 0 -5 5 -2 13 3 7 -3 21
-12 31 -15 14 -15 18 -3 26 8 5 18 9 23 9 5 0 4 6 -1 13 -19 23 -22 44 -7 44
9 0 13 -6 9 -15 -4 -11 -2 -12 8 -4 10 8 26 7 63 -3 27 -8 87 -25 134 -39 282
-81 403 -117 437 -130 21 -8 86 -27 145 -43 l108 -28 0 -414 0 -414 -36 6
c-29 5 -35 3 -30 -8 3 -8 1 -15 -4 -15 -5 0 -33 -11 -62 -24 -78 -36 -266
-116 -272 -116 -3 0 -155 -66 -338 -146 -306 -135 -444 -195 -878 -384 -325
-141 -388 -169 -488 -218 l-103 -49 -137 47 c-75 27 -297 101 -492 166 -378
124 -583 194 -589 200 -4 3 6 43 39 159 11 39 38 138 59 220 34 128 79 297
138 510 7 28 54 210 104 405 50 195 112 438 138 540 123 477 192 755 235 940
8 30 37 145 65 255 271 1043 338 1308 376 1494 19 91 44 193 56 228 l21 63
164 108 c91 59 301 198 467 308 241 161 307 200 327 196 14 -2 144 -44 290
-92z m124 -3938 c3 -5 -1 -9 -9 -9 -8 0 -12 4 -9 9 3 4 7 8 9 8 2 0 6 -4 9 -8z
m133 -65 c0 -8 -6 -14 -13 -14 -7 0 -10 5 -7 10 4 6 0 8 -10 4 -10 -3 -17 -2
-17 3 0 6 11 10 23 10 13 0 24 -6 24 -13z m73 -83 c0 -8 -5 -12 -10 -9 -6 4
-8 11 -5 16 9 14 15 11 15 -7z"/>
<path d="M5632 4125 c12 -27 16 -29 37 -16 11 7 9 10 -8 16 -12 3 -19 11 -16
16 4 5 -1 9 -9 9 -13 0 -14 -4 -4 -25z"/>
</g>
</svg>
