<?xml version="1.0" standalone="no"?>
<!DOCTYPE svg PUBLIC "-//W3C//DTD SVG 20010904//EN"
 "http://www.w3.org/TR/2001/REC-SVG-20010904/DTD/svg10.dtd">
<svg version="1.0" xmlns="http://www.w3.org/2000/svg"
 width="951.000000pt" height="951.000000pt" viewBox="0 0 951.000000 951.000000"
 preserveAspectRatio="xMidYMid meet">
<metadata>
Created by potrace 1.11, written by Peter Selinger 2001-2013
</metadata>
<g transform="translate(0.000000,951.000000) scale(0.100000,-0.100000)"
fill="#000000" stroke="none">
<path d="M2010 9488 c0 -23 39 -269 131 -824 27 -166 54 -330 59 -365 5 -35
15 -88 22 -117 11 -47 10 -56 -6 -83 -10 -17 -16 -40 -12 -52 4 -16 -4 -31
-26 -54 -18 -18 -36 -33 -42 -33 -5 0 -17 -6 -25 -14 -18 -16 -69 -46 -156
-91 -33 -17 -69 -36 -80 -42 -29 -16 -88 -33 -113 -33 -11 0 -23 -4 -26 -9 -4
-5 -25 -12 -49 -16 -43 -7 -127 -40 -127 -49 0 -3 10 -2 23 3 13 5 31 4 44 -2
17 -8 39 -5 85 8 35 10 67 22 73 27 15 13 25 9 35 -14 8 -22 9 -22 9 -2 1 11
7 21 14 22 55 7 76 16 81 36 l5 21 22 -22 22 -22 -24 -48 c-30 -58 -67 -69
-102 -32 l-22 23 -7 -43 c-4 -24 -14 -51 -23 -61 -8 -9 -15 -21 -15 -26 0 -14
-93 -104 -121 -118 -16 -8 -26 -23 -30 -49 -3 -21 -16 -52 -28 -68 -13 -17
-20 -36 -17 -44 2 -7 -2 -16 -10 -19 -10 -4 -13 -13 -9 -25 7 -24 -14 -37 -74
-47 -23 -4 -44 -11 -47 -15 -8 -14 -81 -10 -119 5 -24 10 -36 23 -41 43 -10
47 -12 49 -13 15 -1 -35 35 -82 64 -82 8 0 15 -4 15 -9 0 -16 -34 -21 -70 -11
-50 14 -55 13 -35 -10 20 -22 83 -26 162 -11 51 10 77 -2 49 -24 -22 -17 -102
-35 -154 -35 -21 0 -43 -5 -50 -12 -6 -6 -27 -11 -47 -10 -19 1 -35 -2 -35 -7
0 -5 -9 -11 -20 -14 -11 -3 -20 -10 -20 -16 0 -11 59 -16 143 -12 26 2 47 -1
47 -6 0 -4 29 -8 64 -8 42 0 62 3 59 11 -2 6 3 17 12 24 12 10 15 10 15 -3 0
-30 24 -38 73 -23 28 8 49 10 55 4 12 -12 3 -58 -14 -65 -8 -3 -14 -11 -14
-18 0 -6 -11 -25 -25 -41 -14 -16 -25 -34 -25 -40 0 -22 -26 -64 -43 -70 -14
-5 -17 -12 -12 -36 7 -32 -12 -118 -26 -118 -5 0 -8 -24 -7 -54 1 -41 -3 -60
-20 -81 -12 -15 -22 -38 -22 -51 0 -13 -4 -24 -8 -24 -5 0 -14 -26 -21 -57
-19 -88 -20 -93 -11 -88 5 3 14 -3 20 -14 8 -16 7 -22 -6 -29 -13 -7 -15 -22
-11 -83 3 -41 8 -81 12 -90 3 -10 2 -20 -4 -24 -18 -11 -12 -43 10 -59 18 -12
22 -25 22 -68 -1 -29 2 -57 5 -63 4 -5 7 -17 9 -25 10 -73 14 -80 33 -70 22
12 29 3 46 -50 10 -35 10 -35 9 15 -1 28 -7 62 -13 76 -6 15 -13 66 -17 115
-3 49 -8 96 -11 105 -3 11 3 18 15 22 21 5 51 -28 51 -56 0 -18 80 -42 108
-33 12 4 22 16 24 28 5 32 36 47 52 25 11 -14 20 -129 16 -204 -3 -59 9 -124
26 -141 8 -7 14 -22 14 -33 0 -26 86 -67 103 -50 17 17 24 13 35 -16 20 -54
22 -126 6 -211 -8 -46 -13 -95 -10 -108 4 -14 2 -24 -4 -24 -5 0 -10 -4 -10
-10 0 -5 15 -8 35 -5 28 3 35 1 35 -13 0 -10 4 -22 9 -27 6 -6 17 -41 25 -80
9 -38 18 -74 19 -80 2 -5 11 -45 21 -87 10 -42 24 -82 32 -89 8 -6 14 -16 14
-22 0 -5 11 -25 25 -43 14 -18 25 -36 25 -40 0 -15 34 -84 42 -84 4 0 8 -6 8
-14 0 -8 9 -22 21 -30 17 -11 22 -28 27 -83 3 -48 10 -72 22 -80 9 -6 22 -37
29 -67 7 -31 18 -62 25 -69 12 -12 46 -80 46 -91 0 -15 45 -66 57 -66 8 0 21
-16 29 -35 18 -44 29 -45 19 -2 -19 83 -30 243 -29 427 1 266 -1 256 55 311
26 26 51 60 54 76 4 15 11 38 17 50 6 12 12 42 12 65 2 60 13 74 37 52 10 -9
19 -25 19 -35 0 -10 5 -21 10 -24 19 -11 10 62 -10 87 -10 14 -16 28 -13 32 3
3 -1 6 -10 6 -18 0 -30 30 -22 52 4 9 0 22 -8 29 -17 17 -28 67 -16 75 5 3 9
-3 9 -12 0 -23 13 -9 17 18 2 12 8 27 14 35 8 9 8 13 0 13 -6 0 -11 9 -11 20
0 11 5 20 11 20 6 0 9 -7 6 -14 -4 -10 -1 -13 7 -10 14 5 86 -61 86 -79 0 -6
3 -7 6 -4 9 8 64 -68 64 -88 0 -8 -7 -15 -15 -15 -9 0 -15 -9 -15 -25 0 -16 6
-25 15 -25 8 0 15 5 15 11 0 8 5 8 15 -1 8 -7 22 -9 31 -6 11 4 15 2 11 -7 -4
-10 1 -13 18 -9 17 3 27 -2 35 -18 12 -22 11 -22 -25 -18 -27 3 -39 0 -46 -13
-6 -12 -5 -20 1 -24 15 -9 -8 -35 -31 -35 -10 0 -21 -5 -24 -10 -4 -6 -11 -8
-16 -5 -5 4 -6 -7 -2 -26 5 -26 2 -35 -17 -49 l-23 -18 21 -11 c18 -10 22 -9
22 3 0 8 5 18 12 22 7 5 9 2 6 -7 -4 -10 1 -15 12 -15 10 0 16 6 13 12 -4 12
13 28 32 29 17 2 68 16 106 30 37 14 78 10 92 -9 5 -8 10 -7 16 2 11 18 67 12
63 -6 -2 -10 7 -13 28 -10 18 2 34 -3 39 -11 6 -9 11 -10 15 -3 4 6 13 9 20 6
11 -4 12 -13 6 -35 -5 -17 -5 -31 1 -34 5 -4 9 -2 9 3 0 5 7 9 15 9 14 0 19
-13 18 -44 -1 -7 3 -13 7 -13 4 0 10 -13 14 -30 4 -21 11 -30 24 -30 14 0 23
-12 33 -47 12 -46 13 -46 22 -20 6 20 5 32 -5 44 -14 17 -19 56 -11 86 5 20
23 23 23 3 0 -8 15 -15 40 -19 28 -3 49 -15 69 -36 16 -17 36 -31 45 -31 8 0
20 -9 26 -19 5 -11 32 -27 60 -36 27 -9 50 -21 50 -26 0 -5 8 -9 18 -9 10 0
24 -6 31 -12 11 -11 13 -10 8 5 -4 11 -1 17 7 17 8 0 21 3 29 6 8 3 24 -4 35
-17 12 -12 35 -23 51 -25 17 -2 54 -22 82 -44 37 -29 60 -40 86 -40 31 0 33 2
19 15 -8 8 -21 15 -28 15 -15 0 -61 36 -119 93 -34 33 -39 44 -39 83 0 28 4
43 10 39 6 -3 10 1 10 9 0 9 -7 16 -15 16 -9 0 -15 9 -15 23 1 20 2 20 11 4 6
-9 14 -15 20 -12 13 8 11 45 -2 45 -21 0 -2 23 22 27 15 2 19 0 11 -5 -19 -12
2 -62 26 -62 10 0 23 -5 30 -12 9 -9 12 -8 12 6 0 16 4 15 25 -8 14 -15 25
-32 25 -37 0 -6 4 -8 10 -4 5 3 7 12 4 19 -3 8 -1 17 5 21 6 3 11 15 11 25 0
10 6 21 13 23 9 4 9 7 0 14 -8 6 -9 14 -3 23 6 8 10 27 10 43 0 40 35 70 84
71 40 1 41 2 44 40 2 22 -2 50 -9 62 -9 18 -8 32 7 73 10 28 22 52 26 52 4 1
14 2 21 3 14 1 17 26 2 27 -5 1 -18 5 -28 11 -17 9 -17 11 8 34 14 13 30 24
34 24 5 0 11 9 14 19 2 11 15 21 28 23 15 2 23 9 20 18 -2 8 -3 40 -2 70 1 53
3 57 56 108 30 28 63 52 75 52 11 0 20 5 20 10 0 6 -7 10 -16 10 -9 0 -12 5
-8 11 5 8 -1 10 -18 6 -27 -7 -47 16 -26 29 6 4 8 3 4 -4 -3 -6 -2 -13 3 -16
13 -8 23 27 15 49 -6 15 -3 17 14 13 14 -4 23 -1 27 11 6 16 87 81 102 81 5 0
14 9 21 20 7 11 18 17 27 14 9 -4 15 0 15 8 0 22 47 58 75 58 14 0 25 4 25 9
0 25 81 33 142 14 35 -11 45 -18 41 -30 -5 -13 -3 -13 14 -3 16 11 24 10 46
-5 15 -10 27 -27 27 -38 0 -13 4 -17 9 -12 13 14 19 145 7 145 -5 0 -1 6 9 14
11 8 20 24 20 37 4 78 6 90 15 84 6 -3 13 0 16 9 8 21 34 8 34 -16 0 -16 3
-18 13 -9 8 6 17 8 20 4 10 -10 8 6 -3 28 -10 18 -1 27 13 12 4 -3 22 -8 39
-10 18 -1 29 0 23 5 -25 18 5 72 40 72 9 0 14 4 10 9 -8 15 15 25 28 12 14
-14 40 -15 32 -1 -4 6 -4 24 0 40 7 33 35 41 35 10 0 -24 15 -26 24 -4 4 11
10 13 19 7 6 -6 21 -13 32 -15 11 -3 28 -9 38 -13 13 -5 17 -2 17 14 0 12 -6
21 -14 21 -21 0 -31 21 -15 31 11 6 11 14 2 39 -11 29 -10 30 13 24 19 -5 23
-3 18 9 -9 24 5 41 22 26 11 -9 14 -7 14 10 0 12 5 19 10 16 6 -3 10 -17 10
-31 0 -14 4 -23 9 -20 4 3 7 16 6 28 -1 13 0 15 2 6 5 -22 26 -23 42 -4 7 8
26 18 43 21 21 5 29 12 25 23 -6 26 62 23 77 -3 6 -11 21 -36 33 -56 13 -19
23 -42 23 -50 0 -19 37 -55 47 -45 4 3 1 12 -5 18 -21 21 -13 31 24 25 26 -4
37 -2 41 10 4 11 14 13 35 9 20 -4 27 -2 22 5 -11 19 34 0 61 -25 14 -13 25
-31 25 -40 0 -9 5 -16 11 -16 5 0 8 -4 5 -9 -3 -5 1 -14 8 -20 8 -7 17 -8 20
-3 3 6 -1 15 -9 22 -17 14 -20 50 -4 50 7 0 8 11 4 30 -7 32 4 39 27 17 7 -7
21 -16 31 -20 9 -3 17 -13 17 -21 0 -8 14 -23 30 -33 17 -9 30 -25 30 -35 0
-10 7 -18 15 -18 8 0 15 -4 15 -9 0 -10 39 -35 73 -47 10 -4 21 -19 24 -35 4
-20 14 -31 36 -38 39 -14 37 -15 37 13 0 14 5 28 10 31 12 7 30 -36 30 -70 0
-19 -4 -23 -17 -18 -16 6 -16 5 -5 -10 8 -9 11 -21 7 -27 -3 -5 1 -10 10 -10
9 0 13 5 10 10 -3 6 -1 10 4 10 7 0 9 14 6 35 -2 19 0 37 4 40 5 3 11 -15 13
-40 2 -25 -1 -47 -7 -49 -6 -3 -6 -5 1 -5 6 -1 9 -26 8 -68 -1 -45 3 -74 13
-89 13 -20 13 -23 -4 -32 -10 -5 -24 -7 -30 -5 -7 3 -13 -2 -13 -11 0 -9 8
-16 20 -16 20 0 25 -13 21 -58 -1 -13 3 -29 8 -36 7 -9 5 -16 -7 -27 -20 -16
-62 -13 -62 5 0 13 -24 28 -73 46 -31 11 -119 2 -111 -11 3 -5 -2 -9 -11 -9
-11 0 -15 -5 -11 -15 3 -8 1 -15 -5 -15 -5 0 -12 7 -16 16 -4 10 -13 13 -32 9
-14 -3 -47 -7 -73 -9 -26 -2 -53 -8 -60 -14 -7 -5 -39 -13 -70 -17 -44 -6 -62
-4 -79 8 -13 10 -28 13 -38 8 -9 -4 -38 -8 -64 -9 -27 -1 -65 -6 -85 -11 -20
-5 -81 -9 -135 -9 -98 -1 -122 -6 -112 -23 4 -5 -5 -14 -19 -21 -14 -6 -26
-17 -26 -24 0 -7 -16 -18 -35 -24 -19 -6 -38 -17 -42 -23 -10 -15 -63 -50 -80
-53 -7 -1 -13 3 -13 10 0 7 -9 21 -21 32 -20 18 -21 18 -50 -15 -16 -19 -29
-40 -29 -47 0 -20 -34 -17 -53 4 -10 10 -17 29 -17 43 -1 13 -7 35 -16 49 -14
23 -14 23 -9 3 4 -13 3 -54 -1 -93 -5 -53 -10 -68 -19 -60 -8 7 -16 3 -25 -15
-10 -19 -16 -22 -26 -14 -23 19 -41 4 -36 -30 2 -17 8 -31 13 -31 5 0 4 -12
-2 -27 -5 -14 -9 -33 -8 -42 5 -31 -14 -85 -37 -110 -16 -18 -24 -38 -24 -63
0 -26 -8 -45 -25 -64 -14 -15 -25 -36 -25 -46 0 -11 -5 -28 -10 -39 -11 -19
-21 -204 -12 -226 2 -7 8 -10 13 -7 5 3 9 -15 9 -40 0 -28 -4 -46 -12 -46 -15
0 -1 -13 17 -16 10 -2 13 5 8 26 -6 32 12 63 39 68 9 1 19 -2 23 -8 3 -5 0 -7
-8 -4 -8 3 -18 0 -23 -7 -4 -8 -3 -10 5 -5 6 4 18 3 25 -3 10 -9 15 -8 20 4 7
20 32 19 40 -1 7 -19 19 -12 22 12 8 51 28 120 38 129 6 6 16 19 22 30 8 14
20 19 40 17 33 -4 94 -39 94 -53 0 -13 89 -134 128 -174 80 -84 143 -121 233
-140 73 -16 129 -10 215 22 23 8 49 13 59 11 21 -4 28 11 15 32 -8 12 -11 12
-28 -3 -10 -9 -26 -17 -36 -17 -9 0 -27 -5 -38 -11 -11 -6 -57 -13 -101 -15
-70 -4 -86 -1 -133 22 -66 32 -169 132 -190 184 -9 21 -22 41 -30 44 -37 14 7
89 47 79 25 -7 25 14 -1 22 -30 10 -25 54 11 98 44 54 63 47 110 -38 20 -38
35 -74 32 -79 -3 -5 -1 -6 5 -2 7 4 12 3 12 -2 0 -11 83 -29 168 -37 70 -6
100 5 143 52 49 53 56 101 36 216 -4 22 -2 27 14 27 18 0 57 -17 69 -31 3 -3
26 -20 53 -39 45 -32 51 -41 48 -68 -1 -7 2 -11 6 -10 12 3 83 -67 83 -82 0
-11 3 -11 12 -2 16 16 28 15 28 -3 0 -8 -7 -15 -15 -15 -15 0 -20 -26 -9 -54
8 -21 21 -20 28 2 5 15 18 19 57 21 28 1 48 -3 45 -8 -3 -5 9 -12 27 -15 32
-6 67 -36 67 -58 0 -25 36 24 49 67 11 37 17 45 32 40 11 -4 25 1 36 14 10 12
23 21 29 21 7 0 15 6 17 13 3 6 6 0 6 -15 1 -24 5 -28 31 -28 20 0 30 -5 30
-15 0 -8 8 -24 18 -35 9 -11 17 -26 17 -32 0 -6 6 -13 13 -15 6 -3 12 3 12 12
0 10 4 13 13 8 23 -14 51 -14 59 2 19 32 55 1 47 -41 -5 -26 2 -43 15 -38 11
4 13 0 9 -14 -2 -11 0 -23 5 -26 7 -4 8 -57 5 -144 -3 -75 -5 -145 -5 -154 1
-10 -3 -18 -7 -18 -4 0 -13 -26 -20 -57 -7 -32 -19 -74 -27 -93 -8 -19 -16
-51 -18 -70 -2 -19 -10 -51 -18 -70 -8 -19 -23 -65 -33 -102 -10 -38 -22 -68
-27 -68 -5 0 -6 -9 -3 -20 4 -12 1 -27 -5 -35 -7 -8 -10 -15 -7 -15 3 0 1 -13
-4 -30 -6 -16 -15 -30 -20 -30 -4 0 -6 -7 -3 -15 7 -17 -14 -47 -27 -39 -5 3
-6 -2 -3 -11 4 -8 1 -22 -6 -30 -7 -8 -9 -15 -6 -15 4 0 1 -10 -6 -22 -6 -13
-13 -30 -13 -38 -4 -35 -18 -57 -51 -75 -33 -18 -45 -47 -24 -60 17 -11 11
-24 -15 -31 -20 -5 -25 -13 -25 -35 0 -23 -6 -32 -26 -39 -21 -8 -25 -15 -20
-32 3 -14 -1 -29 -11 -40 -10 -12 -12 -18 -4 -18 6 0 -2 -13 -19 -30 -16 -16
-30 -34 -30 -40 0 -5 -7 -10 -15 -10 -8 0 -15 -4 -15 -9 0 -5 -9 -11 -21 -14
-11 -3 -19 -11 -18 -19 3 -26 -1 -38 -15 -38 -8 0 -20 -13 -27 -28 -7 -16 -25
-34 -41 -41 -17 -8 -28 -20 -28 -33 0 -17 -3 -18 -15 -8 -18 15 -45 6 -45 -15
0 -8 -4 -15 -10 -15 -5 0 -10 -9 -10 -21 0 -11 -4 -17 -10 -14 -5 3 -10 -2
-10 -11 0 -16 -1 -16 -16 2 -14 18 -15 17 -12 -18 3 -30 0 -38 -12 -38 -9 0
-21 5 -27 11 -14 14 -27 -10 -37 -63 -4 -24 -13 -39 -26 -43 -11 -4 -17 -12
-13 -21 8 -23 -54 -18 -74 6 -10 11 -24 20 -31 20 -11 0 -13 12 -10 55 l5 54
-50 18 c-35 13 -62 32 -90 66 -23 26 -48 47 -56 46 -9 -1 -23 0 -31 4 -42 16
-70 17 -70 3 0 -8 5 -18 10 -21 6 -3 10 -15 10 -26 0 -17 -6 -20 -37 -17 -30
2 -38 7 -37 21 1 12 -4 17 -15 15 -11 -2 -15 -12 -13 -28 2 -20 1 -22 -7 -10
-6 8 -11 26 -11 40 0 33 -8 43 -50 62 -28 13 -75 18 -75 8 0 -1 -12 -4 -27 -6
-22 -4 -26 -1 -22 11 5 11 -1 15 -23 15 -27 0 -30 4 -31 31 0 18 5 32 14 36 8
3 14 11 14 19 0 8 5 14 10 14 13 0 13 37 0 45 -5 3 -12 -6 -16 -20 -3 -14 -13
-25 -21 -25 -10 0 -12 6 -8 20 5 17 0 20 -45 26 -29 4 -54 12 -56 19 -7 17
-89 18 -123 0 -17 -8 -43 -15 -58 -15 -22 0 -25 -2 -13 -10 8 -5 11 -10 5 -11
-5 -1 -14 -2 -20 -3 -5 0 -26 -13 -45 -27 -19 -14 -61 -39 -93 -55 -53 -26
-70 -49 -36 -49 21 0 38 -26 39 -60 0 -16 13 -66 28 -110 22 -64 33 -83 55
-93 15 -7 27 -18 27 -24 0 -6 12 -8 33 -4 23 4 28 3 17 -4 -10 -7 -11 -10 -2
-10 7 0 17 -12 23 -27 7 -20 13 -23 21 -15 13 13 92 17 84 4 -6 -10 54 -3 69
8 18 13 67 22 60 10 -3 -6 3 -10 15 -10 14 0 24 8 27 20 4 16 8 18 19 9 8 -6
14 -21 14 -33 0 -26 22 -76 33 -76 4 0 7 5 7 11 0 5 5 7 10 4 6 -4 17 -2 24 4
16 14 43 -13 48 -49 3 -23 0 -25 -32 -23 -27 2 -31 1 -15 -6 l20 -9 -20 -7
c-11 -3 -35 -14 -54 -23 -29 -14 -68 -17 -250 -17 -179 0 -221 -3 -246 -16
-16 -9 -52 -19 -79 -23 -27 -3 -63 -13 -79 -21 -17 -8 -38 -13 -48 -10 -20 7
-34 -21 -16 -32 6 -4 102 -8 212 -8 111 -1 207 -5 213 -9 19 -12 15 -56 -5
-56 -25 0 -44 -42 -27 -58 18 -17 34 -15 28 3 -4 11 -2 13 9 9 9 -3 30 10 55
35 22 23 48 41 57 41 8 0 18 7 21 15 4 8 18 15 33 15 14 0 43 9 63 20 29 15
43 18 63 10 32 -12 38 -12 31 -2 -3 5 18 14 47 21 29 6 67 21 86 32 29 18 35
18 50 6 9 -8 26 -18 39 -21 12 -4 22 -11 22 -16 0 -4 14 -22 30 -40 17 -18 30
-26 30 -19 0 8 18 23 40 33 35 17 40 24 40 52 0 32 11 46 38 50 7 1 21 13 32
26 16 20 21 21 40 10 19 -12 20 -11 8 8 -7 11 -16 20 -19 20 -12 0 3 49 20 64
21 19 87 35 77 18 -4 -7 3 -14 19 -18 18 -4 25 -13 25 -30 0 -13 -4 -24 -10
-24 -5 0 -10 -11 -10 -23 0 -13 -9 -32 -20 -42 -19 -17 -27 -45 -14 -45 10 0
34 28 34 39 0 6 5 11 10 11 6 0 10 -7 10 -16 0 -11 5 -14 18 -9 9 4 37 9 61
11 24 3 48 7 53 10 4 3 6 -5 4 -18 -3 -13 -5 -26 -5 -30 -1 -5 -7 -8 -14 -8
-11 0 -41 -38 -40 -50 1 -3 -8 -17 -18 -32 -11 -14 -18 -37 -17 -50 2 -18 -2
-23 -19 -22 -13 1 -23 -3 -23 -7 0 -5 -6 -8 -12 -7 -7 2 -12 -2 -11 -8 1 -7
-11 -14 -26 -17 -24 -5 -28 -10 -25 -34 2 -15 1 -22 -2 -15 -3 6 -23 12 -45
12 -23 0 -39 5 -39 12 0 7 -6 4 -12 -5 -12 -15 -15 -15 -44 3 -24 16 -30 26
-26 45 2 13 14 27 25 31 l22 7 -23 8 c-12 5 -22 16 -22 24 0 12 -6 15 -22 10
-27 -8 -48 -32 -48 -55 0 -24 -10 -30 -30 -18 -13 9 -28 6 -64 -11 -25 -13
-44 -27 -41 -32 7 -11 -13 -51 -31 -62 -7 -4 -10 -15 -7 -25 5 -14 3 -15 -8
-4 -19 18 -39 15 -39 -7 0 -22 -30 -32 -55 -18 -14 7 -21 6 -30 -7 -7 -9 -20
-16 -29 -16 -21 0 -21 -17 2 -23 14 -3 12 -6 -10 -17 -16 -8 -32 -27 -38 -46
-7 -19 -18 -34 -26 -34 -12 0 -12 -4 1 -30 13 -25 13 -30 1 -30 -20 0 -26 -24
-15 -62 5 -18 9 -34 9 -35 0 -1 -8 -4 -17 -6 -17 -4 -17 -5 0 -6 9 0 17 -5 17
-10 0 -11 -43 -1 -52 12 -9 14 -68 -43 -68 -65 0 -10 -6 -17 -12 -16 -8 2 -13
-9 -13 -29 0 -22 -3 -29 -11 -22 -6 5 -14 6 -18 2 -4 -4 -11 -2 -15 5 -12 19
-62 4 -69 -21 -4 -17 -11 -18 -52 -13 -55 7 -65 -4 -54 -61 9 -46 -10 -59 -48
-31 -28 19 -58 19 -58 -2 0 -5 -7 -10 -15 -10 -8 0 -15 5 -15 10 0 21 -18 9
-30 -20 -12 -28 -14 -29 -26 -13 -12 17 -13 17 -14 1 0 -9 -4 -19 -10 -23 -10
-6 -50 29 -50 44 0 5 -18 8 -40 7 -22 0 -40 -5 -40 -11 0 -5 -11 -23 -25 -39
-14 -16 -25 -33 -25 -38 0 -5 -5 -6 -10 -3 -6 3 -13 -1 -16 -9 -9 -23 -34 -20
-34 3 0 23 -16 36 -25 20 -4 -5 -13 -8 -21 -5 -8 3 -14 1 -14 -3 0 -5 5 -11
12 -13 7 -3 6 -7 -5 -11 -13 -5 -17 -1 -17 16 0 13 -6 29 -12 35 -10 10 -10
15 1 21 9 6 10 11 2 15 -11 7 -31 -31 -31 -60 0 -9 -11 -14 -29 -14 -17 0 -32
-4 -36 -10 -8 -13 -50 4 -51 21 -1 8 -2 21 -3 30 -2 29 -48 66 -83 67 -43 1
-61 26 -54 75 7 39 -8 52 -19 17 -3 -11 -15 -25 -26 -30 -10 -6 -19 -19 -19
-30 0 -25 -17 -35 -23 -13 -3 10 -5 -1 -6 -24 -1 -47 -21 -60 -21 -14 0 17 -6
31 -16 35 -19 7 -12 46 15 85 41 60 42 59 -91 61 -20 1 -29 8 -37 30 -6 20
-16 29 -28 28 -39 -3 -52 2 -47 17 4 8 1 22 -6 30 -9 10 -9 15 -1 15 6 0 11 7
11 15 0 8 8 19 19 24 12 7 17 18 14 33 -2 15 6 35 27 58 34 40 36 46 15 66
-13 13 -16 12 -27 -6 -7 -11 -20 -20 -30 -20 -24 0 -48 28 -41 48 3 9 3 14 -2
10 -4 -4 -13 -1 -19 7 -6 7 -29 17 -51 20 -30 5 -36 4 -25 -4 10 -7 11 -11 3
-11 -7 0 -13 -11 -13 -25 0 -14 -4 -25 -10 -25 -5 0 -7 -6 -4 -13 2 -7 -11
-26 -31 -42 -19 -17 -35 -36 -35 -44 0 -34 -10 1 -19 64 -7 49 -7 73 1 82 9
11 6 12 -14 4 -14 -5 -29 -7 -34 -3 -4 4 -4 1 0 -6 6 -10 -1 -12 -32 -8 -32 3
-40 1 -35 -10 3 -8 9 -14 14 -14 5 0 9 -9 9 -20 0 -11 5 -20 10 -20 6 0 10 -9
10 -19 0 -11 5 -23 10 -26 6 -3 10 -13 10 -22 0 -8 11 -24 24 -34 14 -11 28
-29 31 -40 4 -11 17 -31 31 -46 13 -14 24 -33 24 -42 0 -9 9 -22 20 -29 11 -7
20 -19 20 -27 0 -9 7 -27 16 -41 12 -18 20 -22 29 -14 9 8 16 3 25 -19 6 -16
20 -31 31 -34 10 -3 19 -12 19 -21 0 -9 11 -18 24 -22 18 -4 26 -15 30 -39 4
-21 21 -47 43 -67 19 -18 43 -41 53 -51 12 -12 20 -15 25 -8 8 14 25 14 25 0
0 -7 18 -31 40 -55 22 -24 40 -48 40 -54 0 -7 8 -9 20 -5 15 5 31 -2 54 -23
34 -30 105 -50 126 -37 6 4 19 0 28 -8 14 -13 45 -15 182 -13 97 2 170 -1 178
-7 8 -6 12 -6 12 3 0 7 7 10 14 7 8 -3 54 -7 101 -8 l86 -2 -21 -22 c-14 -15
-18 -25 -11 -30 18 -10 1 -26 -20 -20 -15 5 -19 2 -17 -17 2 -18 -2 -23 -17
-21 -10 1 -38 -11 -60 -26 -33 -22 -54 -28 -102 -30 -33 -1 -74 -6 -91 -10
-21 -7 -33 -6 -37 2 -3 7 -3 0 0 -16 3 -17 1 -27 -7 -27 -6 0 -19 -7 -28 -15
-16 -14 -17 -14 -13 10 6 28 -11 35 -21 8 -5 -12 -9 -14 -18 -5 -17 17 -30 15
-27 -6 1 -9 1 -30 0 -47 l-1 -30 -20 25 -20 25 0 -27 c0 -29 1 -29 -73 -34
-40 -2 -64 -14 -31 -15 18 0 18 -1 -1 -9 -19 -8 -19 -8 4 -17 l25 -10 -25 -6
c-13 -4 -25 -2 -27 3 -2 6 -16 10 -30 10 -15 0 -40 7 -56 15 -15 8 -34 15 -41
15 -7 0 -15 7 -19 15 -3 8 -14 15 -25 15 -32 0 -74 22 -59 31 9 6 5 11 -12 18
-26 9 -60 44 -60 60 0 5 -11 12 -25 15 -14 4 -23 11 -20 16 3 6 -1 10 -9 10
-9 0 -16 7 -16 15 0 8 -5 14 -12 13 -6 -2 -14 8 -17 21 -4 13 -14 25 -23 27
-28 4 -67 38 -68 58 0 25 -53 83 -69 78 -8 -3 -11 0 -7 7 4 6 1 14 -7 17 -8 3
-17 14 -20 25 -3 12 -14 19 -30 19 -14 0 -29 5 -32 10 -4 6 -10 8 -15 5 -5 -3
-11 4 -15 15 -4 12 -15 20 -28 20 -12 0 -28 9 -35 21 -11 17 -11 20 0 14 7 -4
3 2 -9 12 -30 25 -75 92 -68 103 11 18 -6 58 -23 55 -18 -2 -32 12 -32 33 0 7
5 10 11 6 6 -3 4 5 -6 19 -9 14 -22 28 -30 31 -20 7 -48 65 -42 87 3 11 1 17
-3 14 -12 -8 -21 10 -26 52 -3 20 -9 42 -14 48 -9 11 -45 130 -61 205 -14 64
-39 276 -39 334 0 42 2 47 15 36 9 -7 23 -29 32 -48 9 -19 24 -37 32 -39 9 -2
30 -30 48 -62 31 -55 88 -121 105 -121 5 0 14 -12 20 -27 8 -21 12 -24 15 -11
5 18 -15 58 -78 158 -22 36 -49 84 -60 108 -11 24 -26 46 -34 49 -8 3 -15 10
-15 15 0 6 -18 32 -40 58 -22 26 -37 50 -33 54 3 3 1 6 -5 6 -11 0 -52 73 -52
93 0 4 -7 15 -15 23 -8 9 -15 29 -15 45 0 24 -4 29 -23 29 -18 0 -28 10 -42
39 -9 22 -14 44 -11 49 3 6 0 13 -6 15 -10 4 -10 6 0 6 19 1 14 18 -8 24 -12
3 -18 12 -16 23 15 80 17 126 6 139 -7 8 -16 13 -20 10 -4 -2 -13 14 -20 35
-7 22 -19 40 -26 40 -7 0 -13 8 -13 18 0 31 -26 92 -38 88 -6 -3 -19 2 -30 10
-10 9 -12 13 -5 9 22 -11 13 29 -13 59 l-25 29 0 -26 c0 -15 5 -27 10 -27 6 0
10 -14 10 -31 0 -67 -52 21 -55 93 -1 26 1 46 4 44 8 -4 41 31 34 37 -3 3 -12
3 -21 0 -10 -4 -13 -2 -8 5 4 6 9 25 11 42 3 26 1 29 -10 20 -8 -7 -12 -27
-11 -51 3 -35 1 -40 -17 -37 -11 2 -30 19 -41 39 -46 79 -59 95 -102 128 -118
89 -205 81 -444 -43 -245 -127 -321 -194 -368 -328 -16 -44 -114 -209 -175
-294 -9 -12 -40 -28 -74 -37 -73 -21 -158 -71 -239 -142 -34 -30 -90 -71 -124
-90 -56 -32 -69 -35 -138 -35 -56 0 -91 -6 -132 -22 -30 -13 -57 -26 -60 -29
-3 -3 -16 -12 -30 -19 -54 -28 -151 -118 -253 -235 -33 -39 -239 -325 -304
-425 l-33 -50 0 -970 0 -970 998 0 c548 0 1002 4 1007 8 6 4 15 16 21 27 7 12
24 21 43 23 31 3 42 17 20 24 -21 7 28 77 94 137 9 8 17 20 17 27 0 24 41 48
78 46 34 -2 35 -1 19 12 -16 12 -17 17 -5 35 11 18 11 23 0 30 -9 5 -11 17 -6
35 8 34 17 26 20 -19 1 -20 7 -42 14 -50 6 -8 9 -18 6 -23 -3 -5 3 -28 14 -50
11 -22 17 -48 14 -57 -6 -15 30 -58 51 -62 6 -1 14 -16 20 -35 16 -59 95 -120
95 -74 0 8 7 19 16 26 8 8 20 23 26 34 10 18 9 19 -4 8 -19 -15 -32 -2 -42 41
-4 15 -10 25 -15 22 -10 -6 -21 17 -22 48 0 12 -3 16 -6 10 -2 -7 -9 -13 -15
-13 -6 0 -7 7 -4 16 3 8 -1 25 -9 38 -23 35 -35 116 -24 162 24 92 28 144 13
181 -9 19 -13 42 -9 51 3 8 8 45 10 83 6 73 37 156 67 179 3 3 9 17 13 31 3
14 24 49 46 77 21 29 39 56 39 61 0 4 18 39 40 77 21 38 49 88 62 111 l22 43
-63 60 c-59 56 -63 63 -58 95 3 19 14 46 24 60 24 33 90 65 135 65 20 0 52 7
73 16 32 13 41 13 66 2 46 -23 56 -39 209 -334 40 -77 79 -152 88 -169 9 -16
34 -47 57 -70 23 -22 86 -87 140 -145 104 -110 176 -173 211 -184 12 -4 29
-15 39 -26 10 -11 26 -20 36 -20 10 0 38 -9 61 -19 83 -37 103 -44 111 -43 4
1 16 -2 26 -8 27 -14 258 -41 386 -45 182 -6 701 26 800 50 86 19 136 39 251
96 83 41 119 68 203 146 56 52 108 107 116 122 7 14 25 38 39 53 14 15 26 30
26 33 0 9 62 99 74 107 6 4 8 10 4 13 -3 4 3 31 13 60 10 30 19 66 19 79 0 14
4 27 10 31 5 3 7 11 4 18 -7 20 24 99 45 113 12 9 17 21 14 38 -4 17 1 27 16
35 12 7 21 16 21 21 0 5 13 28 29 52 23 33 27 45 18 60 -14 21 -6 30 27 31 14
0 27 6 30 14 9 22 67 13 94 -15 18 -18 31 -23 55 -19 36 5 134 -19 158 -40 8
-7 20 -13 26 -13 5 0 34 -22 64 -50 48 -44 54 -54 53 -87 -1 -21 -11 -58 -22
-83 -26 -57 -52 -157 -52 -203 0 -35 39 -94 53 -81 21 21 160 -130 274 -296
44 -65 150 -171 233 -232 56 -42 272 -172 310 -188 19 -7 46 -21 60 -31 14 -9
73 -40 132 -69 l106 -52 7 -55 c4 -33 12 -56 21 -60 8 -3 14 -11 14 -19 0 -8
4 -14 9 -14 5 0 11 -8 15 -17 3 -10 10 -25 15 -33 5 -8 14 -27 22 -42 l12 -28
369 0 368 0 0 25 c0 13 6 28 13 32 7 4 13 17 12 28 0 11 7 20 15 20 8 1 14 6
13 13 -2 7 4 9 14 5 12 -5 15 -2 10 10 -3 8 1 21 9 28 8 7 12 20 9 30 -4 11
-2 19 4 19 6 0 11 -8 11 -17 1 -17 1 -17 11 0 5 9 8 21 5 25 -3 5 8 19 24 31
17 12 30 30 30 40 0 11 15 28 33 40 24 16 28 21 13 21 -21 0 -17 10 6 14 16 3
78 61 78 73 0 12 43 53 56 53 5 0 18 14 29 30 11 16 25 30 30 30 6 0 18 8 26
18 25 28 66 60 137 109 37 25 80 56 95 69 15 13 43 31 61 39 18 9 43 25 54 35
11 11 32 22 46 26 15 3 30 11 34 18 6 10 36 29 72 46 8 4 42 20 75 36 l60 29
3 1248 2 1247 -33 0 c-19 0 -37 -3 -41 -7 -4 -5 -17 -9 -29 -10 -12 -1 -33 -4
-47 -7 -14 -2 -31 -5 -38 -5 -7 -1 -10 -5 -7 -11 4 -6 -1 -7 -10 -3 -10 3 -21
0 -27 -8 -7 -11 -11 -11 -15 -1 -6 15 -33 16 -33 1 0 -5 -4 -8 -9 -5 -4 3 -23
1 -42 -4 -31 -9 -60 -13 -184 -25 -67 -6 -216 -41 -208 -48 3 -4 -8 -4 -25 -1
-21 4 -32 3 -32 -5 0 -6 -9 -11 -20 -11 -11 0 -20 -4 -20 -10 0 -5 -7 -10 -15
-10 -8 0 -15 4 -15 10 0 11 -22 8 -59 -7 -14 -5 -49 -11 -79 -12 -31 -1 -66
-9 -80 -19 -17 -11 -27 -13 -29 -5 -4 11 -40 6 -58 -8 -6 -4 -20 -8 -30 -8
-50 1 -127 -10 -138 -20 -7 -5 -23 -8 -35 -4 -12 3 -43 0 -70 -7 -26 -7 -56
-14 -67 -15 -130 -20 -171 -25 -184 -20 -9 3 -62 52 -119 109 -57 58 -122 114
-146 125 -51 25 -138 28 -178 6 -63 -34 -75 -41 -103 -61 -17 -12 -44 -25 -61
-28 -28 -6 -33 -4 -40 18 -5 14 -38 56 -74 92 -56 57 -87 80 -189 139 -40 23
-131 86 -135 94 -3 5 3 20 14 34 22 28 26 89 9 149 -11 41 -14 43 -55 27 -63
-23 -88 26 -50 100 9 16 16 39 16 50 0 11 5 23 10 26 6 3 10 15 10 26 0 10 4
19 9 19 5 0 12 18 16 40 4 22 11 40 16 40 5 0 9 7 9 15 0 7 6 18 14 22 7 4 15
15 18 23 4 11 9 7 16 -12 15 -37 71 -53 90 -26 7 10 33 27 57 38 23 11 60 37
80 59 23 24 43 37 54 34 21 -5 35 10 50 59 7 21 20 44 29 50 9 7 24 27 32 43
8 17 29 48 47 71 18 23 33 49 33 59 0 16 32 124 51 170 15 37 22 89 21 154 -1
36 4 71 10 78 7 8 8 17 2 23 -14 14 -5 143 9 133 7 -5 19 -8 27 -7 8 1 22 2
31 3 8 0 35 21 60 46 24 24 50 45 57 45 6 0 12 12 12 26 0 23 2 25 16 13 13
-10 17 -10 25 2 14 22 11 29 -13 26 -17 -1 -23 3 -23 18 0 11 7 20 15 20 8 0
21 4 28 9 10 6 11 1 6 -18 -9 -37 10 -32 34 8 22 36 20 46 -9 46 -14 0 -17 8
-16 43 2 52 -18 77 -62 77 -21 0 -31 5 -31 15 0 8 5 15 10 15 6 0 10 7 10 15
0 8 17 31 37 50 40 38 53 33 53 -18 0 -34 17 -70 30 -62 4 3 20 1 35 -5 21 -8
32 -6 53 9 15 10 38 22 50 26 19 5 23 12 19 31 -2 14 3 31 15 44 14 15 16 24
8 39 -14 26 -13 42 3 40 31 -4 41 1 29 13 -14 14 -16 32 -3 24 5 -4 7 2 4 13
-6 24 7 32 65 37 41 4 51 1 81 -24 23 -21 29 -32 21 -37 -7 -4 -19 -22 -27
-39 -28 -60 -44 -86 -54 -86 -5 0 -9 -11 -9 -25 0 -14 -4 -25 -10 -25 -5 0
-10 -6 -10 -14 0 -8 -17 -20 -37 -27 -21 -6 -53 -29 -72 -50 -28 -31 -37 -37
-48 -27 -11 9 -17 9 -24 -3 -5 -8 -7 -19 -5 -26 3 -6 -2 -14 -10 -17 -8 -3
-14 -10 -14 -15 0 -6 -13 -32 -30 -58 -16 -26 -29 -58 -29 -72 1 -18 3 -21 6
-8 4 14 11 17 32 12 16 -3 47 1 70 9 41 14 43 13 38 -5 -3 -11 0 -19 8 -19 7
0 15 -20 18 -52 6 -49 29 -84 47 -73 4 3 10 -18 14 -46 9 -66 35 -119 58 -119
10 0 18 -4 18 -10 0 -17 60 -41 93 -38 33 3 40 17 53 106 4 30 -10 46 -18 20
-7 -21 -130 35 -173 78 -41 41 -32 59 12 24 14 -11 34 -20 44 -20 9 0 19 -4
21 -9 3 -10 34 -18 95 -27 26 -3 31 -1 27 11 -3 8 3 29 14 47 11 18 20 36 19
40 -1 3 1 9 4 13 4 3 10 -6 13 -21 4 -15 2 -32 -3 -37 -13 -13 -15 -81 -3 -73
5 3 17 34 26 69 9 35 27 76 39 91 l22 27 23 -21 c13 -12 27 -18 35 -13 26 16
81 22 84 9 1 -10 24 -26 36 -26 4 0 7 6 7 14 0 21 19 30 35 16 15 -12 35 -6
35 11 0 5 -15 9 -34 9 -44 0 -63 22 -48 55 8 16 20 25 34 25 17 0 19 -3 10 -9
-19 -12 -11 -55 11 -59 13 -3 17 3 17 27 0 33 8 39 28 19 15 -15 16 -62 1 -52
-7 4 -9 -1 -7 -12 6 -25 -19 -74 -37 -74 -8 0 -15 5 -15 10 0 6 -7 10 -15 10
-8 0 -15 -4 -15 -10 0 -5 6 -10 14 -10 8 0 17 -8 21 -19 3 -10 14 -26 25 -36
11 -10 20 -29 20 -42 0 -12 5 -23 10 -23 6 0 10 -5 10 -11 0 -5 -4 -7 -10 -4
-5 3 -10 2 -10 -4 0 -5 -18 -18 -40 -27 -39 -17 -50 -42 -16 -36 9 2 16 -2 16
-8 0 -5 5 -10 10 -10 6 0 10 6 10 14 0 8 10 18 21 21 12 4 51 31 88 60 38 32
68 49 72 43 4 -7 9 -7 13 1 7 10 -23 50 -31 43 -7 -5 -43 45 -43 58 0 9 12 11
40 7 33 -4 42 -2 51 15 8 15 13 17 25 7 8 -6 14 -8 14 -3 0 5 5 2 11 -6 9 -13
11 -13 16 0 3 8 22 31 42 52 39 39 71 85 51 73 -9 -6 -9 -2 -1 13 6 11 11 34
11 51 0 16 4 33 10 36 6 4 10 -5 10 -21 l0 -27 25 29 c13 16 32 37 40 47 11
13 25 17 47 13 17 -3 39 -1 48 4 13 7 24 2 44 -19 14 -15 24 -30 20 -33 -3 -4
13 -17 35 -30 22 -13 41 -29 41 -36 0 -9 5 -10 19 -3 14 8 20 7 24 -3 3 -8 -2
-16 -14 -19 -13 -3 -17 -11 -13 -21 10 -26 32 -18 39 14 9 39 26 29 18 -10 -3
-19 -1 -30 6 -30 6 0 11 -8 11 -19 0 -28 20 -37 70 -30 25 3 38 7 30 8 -13 1
-13 2 0 11 20 13 33 13 25 0 -3 -6 1 -7 9 -4 11 4 16 0 16 -14 0 -11 7 -22 15
-26 14 -5 15 86 15 819 -1 718 -3 825 -15 825 -8 0 -15 -9 -15 -19 0 -19 -25
-35 -40 -26 -5 3 -11 1 -14 -3 -7 -12 -56 -3 -56 10 0 6 -7 5 -15 -2 -8 -7
-15 -9 -15 -5 0 4 -6 2 -14 -4 -11 -9 -15 -9 -19 1 -4 8 -6 7 -6 -4 -1 -19
-21 -26 -21 -8 0 6 -7 10 -15 10 -8 0 -15 9 -15 20 0 11 -6 20 -14 20 -8 0
-16 6 -19 13 -6 16 -98 10 -96 -7 3 -26 -2 -46 -11 -46 -5 0 -10 6 -10 14 0 9
-8 12 -26 8 -19 -3 -25 -1 -20 7 4 6 3 11 -3 11 -5 0 -16 3 -24 6 -12 4 -14 0
-10 -15 4 -16 1 -21 -13 -22 -12 0 -14 -3 -6 -6 9 -4 10 -8 2 -18 -8 -10 -6
-15 9 -20 12 -4 18 -12 14 -21 -3 -7 -1 -14 5 -14 15 0 143 -125 136 -133 -4
-4 0 -7 10 -7 10 0 21 -12 28 -30 8 -24 15 -29 29 -25 14 5 19 1 19 -14 0 -27
16 -35 30 -14 7 13 10 14 8 3 -3 -25 12 -60 28 -60 8 0 13 -3 12 -7 -1 -5 3
-17 9 -28 6 -11 14 -38 18 -59 7 -35 6 -38 -12 -32 -12 4 -25 1 -33 -9 -10
-12 -10 -15 4 -15 10 0 14 -4 11 -10 -3 -5 -1 -10 4 -10 6 0 11 -9 11 -21 0
-15 5 -19 15 -15 9 3 15 0 15 -9 0 -8 5 -15 11 -15 6 0 8 -9 4 -20 -4 -11 -2
-20 4 -20 6 0 11 5 11 12 0 6 2 9 5 7 10 -11 -8 -47 -21 -42 -18 7 -18 -4 0
-22 11 -11 12 -24 5 -52 -5 -21 -12 -56 -15 -78 -2 -22 -7 -47 -11 -55 -3 -8
-12 -42 -18 -75 -7 -33 -13 -50 -14 -37 -2 35 -21 16 -21 -21 0 -24 -3 -28
-10 -17 -6 10 -10 11 -10 3 0 -7 -7 -13 -15 -13 -8 0 -15 5 -15 11 0 6 -9 8
-20 4 -14 -5 -20 -2 -20 9 0 17 -12 21 -23 9 -4 -3 0 -15 10 -25 9 -10 13 -21
9 -25 -7 -7 -11 -8 -73 -11 -21 -1 -33 -7 -33 -16 0 -8 -6 -17 -12 -19 -8 -4
-7 -6 3 -6 29 -2 33 -51 4 -51 -19 0 -46 -30 -39 -42 4 -6 10 -5 15 3 7 12 11
12 18 1 4 -7 14 -15 22 -16 32 -7 49 -19 49 -37 0 -10 9 -24 20 -32 19 -13 18
-15 -21 -27 -36 -12 -44 -12 -67 3 -15 9 -26 21 -24 27 1 7 -3 8 -10 3 -7 -4
-31 -9 -53 -10 -22 -1 -49 -3 -60 -5 -11 -2 -19 2 -18 9 3 12 -45 20 -166 27
-66 4 -96 22 -85 51 3 6 -4 28 -16 48 -20 34 -91 77 -154 93 -39 9 -51 30 -37
60 8 17 17 24 27 20 9 -3 20 -6 25 -6 5 0 14 -11 19 -25 6 -16 18 -25 32 -26
13 -1 43 -3 68 -4 25 -1 67 -10 93 -20 66 -24 75 -13 53 59 l-18 55 -21 -19
c-25 -24 -33 -25 -41 -5 -3 8 -17 15 -32 15 -25 0 -26 2 -21 43 2 23 8 53 12
67 7 21 2 19 -34 -17 -44 -45 -71 -63 -95 -63 -50 0 -63 90 -20 133 15 15 30
25 34 22 4 -3 13 9 20 26 12 28 11 32 -19 58 -33 30 -40 65 -18 95 10 14 24
17 59 15 44 -4 47 -3 52 24 3 16 3 40 0 53 -5 19 -3 23 9 18 10 -3 20 3 27 16
13 25 14 25 -22 34 -21 5 -28 3 -28 -9 0 -8 5 -15 11 -15 8 0 8 -5 -1 -15 -7
-8 -19 -15 -26 -15 -8 0 -14 -10 -14 -25 0 -22 -4 -25 -37 -25 -21 0 -54 -3
-74 -6 -37 -6 -37 -6 -53 44 -13 38 -23 52 -41 56 -15 4 -27 16 -31 31 -7 30
-16 31 -51 8 -21 -14 -25 -14 -21 -3 2 8 31 26 64 40 32 13 61 27 64 30 8 9
118 60 128 60 6 0 8 -9 5 -20 -3 -12 0 -20 7 -20 6 0 18 -7 26 -15 34 -33 46
-7 41 87 -3 62 12 82 36 49 17 -26 49 -31 53 -8 1 11 -9 23 -29 33 -40 20 -66
52 -67 82 0 22 1 22 43 -10 23 -18 44 -37 46 -42 2 -5 11 -16 21 -26 37 -37
35 -68 -4 -61 -5 1 -4 -5 4 -13 7 -9 15 -16 19 -16 14 0 42 78 37 105 -2 17
-5 38 -5 48 -1 10 -9 17 -20 17 -12 0 -21 9 -25 25 -6 25 -46 56 -46 35 0 -5
-7 -10 -16 -10 -14 0 -16 7 -11 40 4 34 2 41 -20 55 -21 14 -24 21 -18 55 5
28 2 46 -9 62 -9 13 -16 43 -16 70 0 26 -4 50 -10 53 -6 4 -10 -21 -10 -68 0
-54 -4 -78 -15 -87 -8 -7 -15 -21 -15 -32 0 -11 -6 -46 -14 -77 -28 -114 -28
-120 -1 -133 32 -14 40 -41 23 -78 -15 -35 -18 -36 -60 -10 -18 11 -45 20 -60
20 -31 0 -37 20 -13 40 22 18 3 35 -23 21 -27 -14 -32 -14 -32 2 0 7 11 23 25
35 22 19 33 42 20 42 -19 0 -65 -32 -95 -64 -61 -69 -74 -82 -107 -105 -18
-12 -33 -26 -33 -30 0 -4 18 -17 40 -30 60 -34 53 -51 -20 -47 -68 3 -80 -6
-80 -66 0 -64 -12 -109 -27 -104 -8 3 -16 -2 -20 -12 -10 -28 -35 -52 -53 -52
-10 0 -20 -9 -23 -20 -4 -15 -14 -20 -39 -20 -29 0 -37 5 -51 35 -19 40 -22
81 -7 90 5 3 9 16 8 28 -1 12 7 36 19 52 43 63 93 144 93 152 0 4 16 28 36 53
19 24 38 57 41 72 3 15 11 29 19 32 19 7 18 26 -1 26 -8 0 -15 -4 -15 -9 0
-16 -96 -165 -108 -169 -14 -4 -15 18 -3 71 5 20 5 39 1 42 -4 2 -19 28 -33
57 -14 29 -34 60 -46 68 -12 8 -21 23 -21 32 0 12 -10 20 -29 24 -17 4 -31 14
-34 25 -4 15 -11 18 -30 14 -28 -8 -38 4 -43 48 -4 31 -33 67 -55 67 -6 0 -9
6 -6 14 3 7 2 17 -3 22 -8 9 -13 37 -11 62 0 6 10 12 20 12 11 0 22 6 24 13 4
9 6 9 6 0 1 -7 8 -10 16 -7 10 4 18 -3 25 -22 13 -34 20 -26 46 57 12 39 23
58 32 54 9 -3 10 0 2 15 -6 11 -15 20 -19 20 -18 0 -17 75 1 122 16 43 32 72
85 157 l16 24 18 -24 c10 -13 19 -32 19 -41 0 -11 5 -15 15 -12 8 4 15 1 15
-5 0 -14 32 -2 46 18 7 8 10 21 7 27 -2 7 0 15 6 18 5 4 12 -3 16 -14 4 -12
15 -20 29 -20 12 0 27 -5 34 -12 9 -9 12 -9 12 3 0 8 8 15 18 16 37 3 57 10
56 21 -2 28 -5 31 -18 26 -9 -3 -15 4 -18 20 -5 23 -2 26 22 24 19 -1 26 -6
22 -16 -4 -11 -1 -12 15 -4 11 6 25 18 32 26 14 17 16 85 5 149 -7 37 -8 39
-14 17 -7 -23 -8 -21 -19 21 -14 50 -53 81 -75 59 -17 -17 -62 -11 -81 10 -10
11 -18 33 -19 49 -1 29 -16 33 -16 5 0 -8 -4 -13 -9 -10 -5 3 -7 16 -4 27 5
19 3 21 -20 17 -18 -4 -27 0 -30 11 -3 10 -5 8 -6 -6 -1 -16 -6 -21 -16 -17
-8 4 -17 -1 -21 -10 -3 -9 -16 -16 -28 -16 -12 0 -27 -5 -34 -12 -7 -7 -12 -8
-12 -4 0 5 -7 3 -15 -4 -19 -16 -20 -98 -1 -122 18 -25 26 -22 26 7 0 14 5 25
10 25 6 0 15 -11 20 -25 10 -27 30 -34 30 -11 0 8 6 16 14 19 11 5 15 -7 18
-52 1 -32 2 -66 0 -74 -6 -28 -32 -28 -58 0 -13 14 -25 22 -25 17 -1 -5 -2
-31 -3 -59 -1 -41 -7 -58 -36 -95 -19 -25 -36 -47 -38 -49 -1 -3 -8 1 -14 7
-7 7 -25 12 -40 12 -27 0 -36 18 -28 55 10 48 19 141 15 155 -4 12 -13 16 -31
12 -19 -3 -23 -9 -18 -21 4 -9 9 -33 12 -53 3 -32 1 -38 -15 -38 -22 0 -58 61
-55 95 1 15 -7 29 -25 40 l-26 18 27 14 c17 9 25 20 22 28 -3 8 1 21 9 29 16
16 20 30 6 22 -9 -6 -53 37 -50 50 3 20 -2 34 -12 34 -6 0 -9 -7 -5 -15 4 -10
-1 -15 -15 -15 -12 0 -34 -13 -49 -30 -21 -22 -37 -30 -63 -30 -36 0 -56 13
-37 25 15 9 12 45 -4 45 -8 0 -16 7 -20 15 -3 8 -9 15 -13 14 -31 -5 -52 4
-58 24 -4 12 -16 32 -27 44 -11 12 -17 26 -14 32 7 11 -31 57 -91 114 -18 17
-33 35 -33 41 0 5 -19 28 -43 51 -23 22 -63 67 -88 100 -26 33 -51 59 -57 58
-7 -2 -14 8 -18 21 -4 16 -11 23 -20 19 -21 -8 -54 26 -54 55 0 17 -4 22 -14
19 -8 -3 -17 1 -20 9 -3 8 -12 14 -21 14 -8 0 -15 7 -15 16 0 9 -6 14 -13 11
-7 -2 -23 11 -37 29 -14 18 -29 34 -34 34 -19 0 -46 42 -37 58 12 21 -70 66
-105 58 -19 -5 -25 -2 -30 19 -3 14 -10 25 -15 25 -5 0 -6 7 -3 15 9 21 -16
47 -38 41 -12 -3 -18 0 -15 7 2 7 13 13 24 15 15 2 19 9 16 21 -3 10 0 22 5
25 12 7 26 -29 17 -44 -3 -5 10 -18 30 -27 30 -14 38 -15 44 -4 6 9 23 12 48
10 31 -3 39 -1 39 13 0 9 -4 14 -8 12 -12 -8 -10 14 4 35 12 19 12 19 31 -2
l19 -22 -6 23 c-5 13 -3 22 3 22 6 0 11 -6 11 -12 0 -10 2 -10 9 0 7 11 9 11
14 -2 4 -9 1 -16 -6 -16 -7 0 -3 -7 7 -15 11 -8 27 -14 35 -14 13 1 12 2 -1 6
-23 6 -23 23 0 23 10 0 23 5 30 12 9 9 12 9 12 0 0 -7 -4 -12 -10 -12 -16 0
-12 -17 6 -24 14 -5 15 1 12 39 -3 43 -2 45 22 44 18 -1 20 -3 7 -6 -27 -7
-20 -96 7 -101 11 -3 26 4 34 14 13 17 14 17 9 2 -4 -12 -1 -18 8 -18 8 0 15
7 15 15 0 18 16 20 24 3 4 -9 8 -10 11 -2 6 12 52 7 61 -7 8 -13 44 -11 44 3
0 9 3 9 12 0 9 -9 9 -15 0 -24 -7 -7 -12 -17 -12 -22 0 -6 9 0 20 14 17 21 20
22 20 7 0 -29 24 -14 31 19 4 22 8 25 13 13 4 -10 -2 -31 -16 -54 -15 -26 -18
-40 -10 -43 8 -2 8 -8 0 -22 -13 -20 -2 -43 10 -24 9 13 91 15 115 2 16 -8 18
-7 12 11 -4 12 -2 21 4 21 6 0 11 -4 11 -10 0 -5 4 -10 9 -10 5 0 7 30 5 68
-3 57 -2 62 6 35 11 -34 34 -44 44 -18 3 8 11 15 18 15 9 0 9 -3 1 -11 -6 -6
-9 -18 -6 -26 5 -12 0 -14 -28 -9 -19 4 -29 4 -23 -1 5 -4 20 -25 33 -45 23
-38 23 -38 2 -38 -13 0 -21 -6 -21 -17 0 -15 -1 -16 -12 0 -16 20 -109 28
-115 10 -3 -8 11 -10 51 -6 48 5 56 3 56 -11 0 -9 5 -16 10 -16 6 0 10 -7 10
-15 0 -22 47 -19 53 3 4 13 5 11 6 -5 1 -30 15 -29 28 0 8 18 19 24 45 24 18
0 27 -2 21 -4 -27 -9 -11 -23 25 -23 21 0 43 -5 49 -11 8 -8 11 -6 10 6 -1 10
3 20 9 22 7 2 12 -2 11 -9 -2 -26 26 -79 38 -74 17 6 13 -23 -4 -33 -18 -12
37 -21 123 -21 39 -1 84 -7 101 -14 l30 -12 -34 -12 c-46 -16 -51 -15 -51 8 0
21 -16 25 -57 14 -37 -10 -28 -34 11 -34 19 0 38 -4 41 -10 3 -5 23 -10 44
-10 30 0 40 -4 44 -20 3 -11 12 -20 21 -20 21 0 20 19 -1 36 -16 12 -13 13 22
13 22 0 49 -4 60 -9 19 -8 19 -9 -3 -9 -24 -1 -44 -32 -24 -39 21 -7 13 -31
-8 -25 -14 4 -20 0 -20 -11 0 -22 26 -31 44 -16 16 13 50 0 59 -22 3 -8 6 -7
6 4 1 17 -6 26 -44 53 -19 14 -18 14 14 15 23 0 32 -4 28 -13 -3 -7 2 -24 10
-38 l14 -24 -4 33 c-5 41 9 42 18 0 l7 -32 15 27 c21 41 35 32 18 -10 -10 -24
-12 -39 -5 -41 5 -2 10 -15 10 -29 0 -20 4 -24 18 -18 40 17 52 17 52 2 0 -9
-8 -21 -17 -26 -16 -9 -15 -11 7 -12 14 -1 34 0 45 1 23 2 16 -8 -17 -24 -13
-7 -24 -22 -26 -36 -2 -22 -1 -23 8 -7 6 9 16 15 21 11 6 -3 26 -3 45 0 30 6
33 9 24 26 -10 18 -8 19 16 10 14 -6 29 -8 34 -5 4 3 10 -5 13 -16 4 -13 10
-18 18 -13 8 4 10 3 5 -4 -4 -7 -14 -12 -22 -12 -16 0 -14 -47 6 -145 10 -49
10 -51 -19 -75 -16 -14 -48 -37 -71 -53 -44 -29 -45 -49 -2 -47 49 4 72 0 72
-11 0 -6 7 -17 15 -25 13 -14 15 -14 15 0 0 8 -4 17 -10 21 -5 3 -6 13 -3 21
5 13 10 10 29 -13 20 -24 25 -26 34 -13 9 13 12 13 24 -2 7 -10 18 -18 23 -18
6 0 18 -11 27 -25 15 -23 45 -27 31 -4 -4 5 -1 9 5 9 6 0 8 -10 4 -25 -4 -18
-2 -25 9 -25 8 0 18 -7 21 -16 9 -24 7 -28 -8 -15 -12 10 -13 8 -9 -10 4 -15
3 -20 -5 -15 -8 5 -10 2 -6 -8 4 -9 -1 -18 -10 -22 -9 -3 -16 -15 -16 -25 0
-10 -4 -19 -10 -19 -5 0 -7 -7 -4 -15 4 -10 0 -15 -15 -15 -11 0 -28 -11 -37
-25 -16 -24 -16 -27 1 -39 17 -12 17 -15 -3 -52 -31 -57 -112 -230 -112 -238
0 -4 -8 -26 -19 -49 -10 -23 -40 -94 -65 -157 -52 -127 -66 -156 -101 -215
-28 -48 -29 -56 -11 -80 13 -18 17 -13 51 60 113 238 258 531 267 536 5 3 10
10 11 15 3 31 25 65 47 73 14 5 19 10 13 10 -7 1 -13 10 -13 21 0 27 27 80 41
80 6 0 8 4 4 9 -3 6 8 32 23 58 16 26 32 61 36 76 4 15 12 27 19 26 27 -3 39
2 34 15 -4 10 4 12 29 10 26 -2 33 1 26 9 -14 18 -24 67 -14 67 5 0 17 -9 27
-20 10 -11 26 -20 36 -20 10 0 21 -5 24 -10 4 -6 10 -8 14 -6 4 3 22 -8 40
-24 18 -17 39 -30 47 -30 11 0 13 -6 9 -20 -4 -13 -1 -22 9 -26 20 -8 21 -24
2 -24 -17 0 -28 -52 -13 -62 9 -5 8 -11 -1 -20 -11 -11 -13 -10 -10 2 2 8 -3
15 -9 14 -7 -1 -26 -2 -43 -2 -22 -2 -30 -7 -30 -21 0 -10 7 -21 15 -25 20 -7
19 -18 -5 -44 -12 -12 -16 -22 -10 -22 5 0 10 -4 10 -10 0 -5 -7 -10 -15 -10
-8 0 -15 -6 -15 -13 0 -7 -13 -26 -30 -42 -36 -34 -37 -42 -7 -48 15 -3 11 -5
-13 -6 -34 -2 -34 -2 -15 -17 14 -11 16 -18 8 -21 -7 -3 -13 -13 -13 -24 0
-10 -6 -17 -12 -15 -7 1 -10 1 -6 -1 12 -7 9 -31 -4 -36 -10 -4 -10 -6 0 -6 8
-1 16 8 19 19 3 11 9 20 13 20 4 0 11 16 14 35 8 40 16 43 42 14 18 -20 18
-20 -9 -14 -17 5 -27 3 -27 -4 0 -6 5 -11 10 -11 6 0 10 -4 10 -10 0 -5 -7
-10 -15 -10 -8 0 -15 -6 -15 -14 0 -7 -16 -27 -35 -43 -19 -17 -35 -35 -35
-40 0 -6 -7 -16 -15 -23 -19 -15 -19 -21 -1 -46 14 -18 17 -16 71 39 30 31 64
57 75 57 11 0 17 5 15 13 -3 7 5 13 21 14 15 0 31 7 35 15 7 11 11 10 19 -2 7
-12 12 -12 22 -2 10 10 10 15 -2 23 -13 8 -13 11 2 19 9 6 14 18 11 29 -3 10
1 22 7 26 9 5 11 -7 8 -44 -3 -38 -1 -51 9 -51 7 0 20 -8 29 -18 11 -14 27
-18 62 -16 33 1 53 -3 67 -16 13 -11 35 -18 60 -17 23 0 52 -7 67 -17 17 -11
35 -15 48 -11 14 4 28 1 41 -11 16 -14 23 -15 45 -6 35 17 49 15 34 -3 -16
-19 2 -20 49 -4 l31 11 0 1179 0 1179 -2945 0 c-1973 0 -2945 -3 -2945 -10 0
-6 -7 -6 -19 2 -14 8 -28 9 -52 1 l-34 -11 29 -1 c28 -1 28 -2 12 -14 -18 -13
-18 -14 0 -22 16 -6 14 -9 -16 -20 -19 -8 -27 -14 -17 -14 21 -1 22 -17 3 -37
-10 -9 -13 -26 -9 -48 3 -19 1 -36 -6 -40 -18 -11 -13 -26 9 -26 12 0 20 7 20
18 0 12 2 14 8 4 5 -7 16 -10 24 -7 9 4 19 2 23 -4 3 -6 1 -11 -4 -11 -20 0
-11 -22 19 -50 38 -35 38 -47 -1 -68 -17 -9 -44 -29 -61 -44 -22 -21 -40 -28
-70 -28 -28 0 -45 -7 -61 -24 -12 -13 -38 -31 -57 -41 -19 -9 -42 -24 -51 -32
-17 -15 -66 -26 -107 -24 -16 1 -26 -6 -29 -19 -4 -17 -8 -18 -20 -8 -13 10
-14 7 -8 -25 6 -31 4 -37 -10 -37 -12 0 -15 5 -10 20 3 11 3 20 0 20 -14 0
-75 -53 -75 -66 0 -8 -4 -14 -8 -14 -4 0 -27 -18 -50 -40 -22 -22 -47 -40 -54
-40 -7 0 -19 -9 -26 -20 -27 -44 -38 -23 -55 118 -32 259 -77 637 -77 650 0 9
-84 12 -385 12 l-385 0 0 -22z m2044 -75 c-13 -10 -20 -10 -23 -2 -4 14 19 30
33 22 5 -3 1 -12 -10 -20z m268 -18 c-4 -22 -7 -24 -21 -13 -9 7 -18 14 -20
15 -2 1 7 7 20 12 13 5 25 10 25 10 1 1 -1 -10 -4 -24z m-482 -5 c0 -6 11 -8
25 -4 19 5 25 2 25 -10 0 -9 -8 -16 -17 -16 -29 1 -71 40 -43 40 6 0 10 -5 10
-10z m530 0 c0 -5 -4 -10 -9 -10 -6 0 -13 5 -16 10 -3 6 1 10 9 10 9 0 16 -4
16 -10z m-2203 -42 c-3 -8 -6 -5 -6 6 -1 11 2 17 5 13 3 -3 4 -12 1 -19z
m4031 -172 c-9 -16 -12 -18 -16 -6 -3 7 0 16 6 18 6 2 8 11 5 20 -4 14 -3 14
5 3 7 -10 7 -21 0 -35z m326 -51 c-7 -16 -24 -21 -24 -6 0 8 7 13 27 20 1 1 0
-6 -3 -14z m-169 -20 c0 -13 -8 -21 -22 -23 -24 -3 -28 4 -17 33 9 22 39 14
39 -10z m-4148 -17 c-3 -7 -5 -2 -5 12 0 14 2 19 5 13 2 -7 2 -19 0 -25z
m4077 26 c9 -3 13 -10 10 -15 -8 -14 -21 -11 -28 6 -6 17 -4 18 18 9z m334
-26 c-16 -28 -38 -52 -38 -41 1 23 13 52 21 47 5 -3 9 0 9 5 0 6 5 11 10 11 6
0 5 -9 -2 -22z m-54 -40 c8 -32 7 -38 -5 -38 -6 0 -9 7 -5 15 3 8 1 15 -4 15
-6 0 -10 7 -10 15 0 23 17 18 24 -7z m-164 2 c0 -12 -24 -12 -60 0 -21 7 -19
8 18 9 23 1 42 -3 42 -9z m-30 -36 c0 -8 -4 -12 -10 -9 -5 3 -10 10 -10 16 0
5 5 9 10 9 6 0 10 -7 10 -16z m33 -4 c-3 -12 -8 -19 -11 -16 -5 6 5 36 12 36
2 0 2 -9 -1 -20z m268 -18 c-6 -2 -11 -12 -11 -23 0 -14 -7 -19 -25 -19 -22 0
-25 4 -24 33 1 23 3 26 6 10 2 -13 7 -23 10 -23 9 0 43 42 44 54 1 6 4 2 6 -9
3 -10 0 -21 -6 -23z m-247 2 c3 -8 2 -12 -4 -9 -6 3 -10 10 -10 16 0 14 7 11
14 -7z m176 -8 c0 -14 -4 -28 -10 -31 -6 -4 -10 7 -10 24 0 17 5 31 10 31 6 0
10 -11 10 -24z m572 -16 c4 -24 2 -27 -9 -19 -15 13 -18 49 -4 49 5 0 11 -13
13 -30z m-652 5 c0 -8 -4 -15 -9 -15 -13 0 -22 16 -14 24 11 11 23 6 23 -9z
m730 -15 c0 -5 -5 -10 -11 -10 -5 0 -7 5 -4 10 3 6 8 10 11 10 2 0 4 -4 4 -10z
m-4070 -54 c0 -3 -4 -8 -10 -11 -5 -3 -10 -1 -10 4 0 6 5 11 10 11 6 0 10 -2
10 -4z m-894 -341 c-2 -5 -7 13 -11 40 -4 28 -13 88 -21 134 -8 46 -14 100
-13 120 0 20 12 -36 25 -124 13 -88 22 -164 20 -170z m4939 296 c3 -5 1 -12
-5 -16 -5 -3 -10 1 -10 9 0 18 6 21 15 7z m32 -13 c-3 -8 -6 -5 -6 6 -1 11 2
17 5 13 3 -3 4 -12 1 -19z m70 16 c-3 -3 -12 -4 -19 -1 -8 3 -5 6 6 6 11 1 17
-2 13 -5z m-4217 -72 c0 -13 -23 -32 -39 -32 -11 0 -10 4 5 19 20 21 34 26 34
13z m4330 -12 c0 -5 -10 -10 -22 -9 -22 0 -22 1 -3 9 11 5 21 9 23 9 1 1 2 -3
2 -9z m267 -6 c-3 -3 -12 -4 -19 -1 -8 3 -5 6 6 6 11 1 17 -2 13 -5z m53 -24
c0 -5 -7 -10 -15 -10 -8 0 -15 5 -15 10 0 6 7 10 15 10 8 0 15 -4 15 -10z
m-163 -6 c-3 -3 -12 -4 -19 -1 -8 3 -5 6 6 6 11 1 17 -2 13 -5z m105 -26 c-11
-11 -32 -3 -32 12 0 4 9 6 21 3 13 -4 17 -9 11 -15z m218 -18 c0 -4 -9 -6 -21
-3 -15 4 -17 8 -8 14 14 8 29 3 29 -11z m-4960 1 c0 -5 -6 -14 -14 -20 -16
-13 -32 2 -21 19 8 12 35 13 35 1z m4770 -26 c0 -8 -4 -15 -10 -15 -5 0 -7 7
-4 15 4 8 8 15 10 15 2 0 4 -7 4 -15z m27 -7 c-3 -8 -6 -5 -6 6 -1 11 2 17 5
13 3 -3 4 -12 1 -19z m58 -28 c4 -6 -6 -10 -22 -9 -25 0 -26 1 -8 9 11 5 21 9
22 9 1 1 5 -3 8 -9z m301 -114 c10 4 16 4 12 -1 -10 -11 -78 -15 -78 -5 0 12
34 18 41 8 3 -5 14 -6 25 -2z m-5819 -33 c-3 -10 -5 -4 -5 12 0 17 2 24 5 18
2 -7 2 -21 0 -30z m5733 17 c0 -5 -7 -10 -16 -10 -8 0 -12 5 -9 10 3 6 10 10
16 10 5 0 9 -4 9 -10z m-1140 -27 c0 -13 -3 -13 -15 -3 -8 7 -12 16 -9 21 8
13 24 1 24 -18z m1382 -11 c15 -6 15 -9 2 -26 -12 -17 -14 -18 -14 -3 0 9 -7
17 -15 17 -8 0 -15 5 -15 10 0 11 17 12 42 2z m-5965 -39 c-3 -10 -5 -4 -5 12
0 17 2 24 5 18 2 -7 2 -21 0 -30z m10 -75 c-2 -13 -4 -5 -4 17 -1 22 1 32 4
23 2 -10 2 -28 0 -40z m4648 23 c3 -5 1 -12 -5 -16 -5 -3 -10 1 -10 9 0 18 6
21 15 7z m1245 -1 c0 -5 -9 -10 -20 -10 -11 0 -20 5 -20 10 0 6 9 10 20 10 11
0 20 -4 20 -10z m50 -20 c0 -5 -4 -10 -10 -10 -5 0 -10 5 -10 10 0 6 5 10 10
10 6 0 10 -4 10 -10z m335 -37 c14 -15 25 -38 25 -50 0 -24 16 -40 22 -22 2 6
15 9 28 7 l25 -5 -24 -10 c-22 -9 -22 -10 -6 -17 26 -9 34 2 36 54 3 53 13 70
44 70 28 0 32 -11 31 -75 -1 -43 -7 -58 -38 -95 -20 -25 -48 -67 -62 -95 -23
-42 -28 -46 -32 -28 -5 18 -9 19 -33 10 -35 -13 -73 11 -102 66 -12 24 -27 37
-39 37 -13 0 -20 7 -20 18 0 10 -7 27 -15 39 -9 12 -12 29 -8 39 6 16 9 14 19
-11 l13 -30 1 30 c0 29 20 74 20 48 0 -21 18 -15 25 8 6 17 34 36 57 38 4 1
19 -11 33 -26z m-1640 -5 c3 -7 16 -14 30 -14 28 -2 55 -25 55 -49 0 -9 5 -13
11 -9 6 3 25 -10 41 -31 23 -27 33 -33 39 -24 6 10 13 6 29 -14 12 -15 26 -25
31 -22 5 4 9 2 9 -2 0 -5 11 -20 25 -35 29 -31 27 -62 -6 -97 -25 -27 -39 -27
-39 0 0 11 -4 17 -10 14 -5 -3 -10 1 -10 9 0 9 6 16 13 16 8 0 7 3 -3 10 -9 6
-18 6 -24 0 -10 -10 -63 57 -58 73 1 4 -2 7 -8 7 -5 0 -10 5 -10 12 0 6 -10
22 -22 35 -17 19 -19 23 -5 17 9 -3 17 -1 17 4 0 12 -38 28 -75 31 -22 2 -55
38 -55 61 0 22 18 27 25 8z m1445 -2 c0 -2 -7 -6 -15 -10 -8 -3 -15 -1 -15 4
0 6 7 10 15 10 8 0 15 -2 15 -4z m536 -22 c16 -24 16 -28 -4 -70 -12 -24 -22
-58 -22 -74 0 -20 -8 -35 -30 -50 l-30 -22 -30 32 c-17 18 -30 37 -30 44 0 7
-5 17 -11 23 -9 9 -8 16 5 28 9 9 14 21 11 26 -13 20 14 7 28 -13 19 -29 27
-21 32 28 2 24 11 45 25 56 29 24 36 23 56 -8z m-246 2 c0 -8 -4 -17 -9 -21
-12 -7 -24 12 -16 25 9 15 25 12 25 -4z m-390 -26 c0 -5 -4 -10 -10 -10 -5 0
-10 5 -10 10 0 6 5 10 10 10 6 0 10 -4 10 -10z m818 -98 c2 -12 -7 -36 -19
-53 -16 -23 -27 -30 -45 -26 -15 3 -24 -1 -24 -8 0 -7 -7 -15 -15 -19 -17 -6
-21 -46 -5 -46 6 0 10 -7 10 -15 0 -22 6 -19 58 24 60 50 92 61 92 31 0 -11
-11 -31 -23 -43 -28 -25 -83 -160 -73 -176 4 -6 1 -9 -7 -5 -14 5 -17 -6 -18
-56 -1 -13 -7 -33 -15 -44 -14 -20 -14 -20 -16 -1 0 11 -1 26 -1 33 1 10 -8
12 -33 7 -31 -5 -34 -4 -34 19 0 14 -5 46 -12 70 -10 37 -9 51 6 91 10 25 24
49 32 52 16 6 19 33 4 33 -6 0 -13 -7 -16 -15 -6 -15 -92 -61 -100 -52 -9 8
19 57 33 57 27 0 62 32 74 68 23 73 59 104 59 51 0 -16 5 -14 32 16 36 38 51
40 56 7z m-668 -22 c0 -5 -7 -10 -16 -10 -8 0 -12 5 -9 10 3 6 10 10 16 10 5
0 9 -4 9 -10z m350 -65 c0 -28 -26 -75 -42 -75 -6 0 -8 7 -4 15 3 8 1 15 -4
15 -6 0 -10 7 -10 15 0 8 4 15 9 15 5 0 13 9 16 20 9 29 35 25 35 -5z m-70
-49 c0 -3 -4 -8 -10 -11 -5 -3 -10 -1 -10 4 0 6 5 11 10 11 6 0 10 -2 10 -4z
m492 -48 c-7 -7 -12 -8 -12 -2 0 14 12 26 19 19 2 -3 -1 -11 -7 -17z m23 -130
c-16 -18 -32 -32 -37 -30 -4 1 -8 -2 -8 -8 0 -17 -50 -60 -70 -60 -11 0 -20
-7 -20 -15 0 -8 -9 -15 -21 -15 -18 0 -20 5 -17 42 3 39 8 45 63 84 33 23 63
40 67 38 3 -2 17 0 30 5 37 14 43 -5 13 -41z m-655 -28 c0 -5 -4 -10 -10 -10
-5 0 -10 5 -10 10 0 6 5 10 10 10 6 0 10 -4 10 -10z m-532 -21 c-2 -6 -8 -10
-13 -10 -5 0 -11 4 -13 10 -2 6 4 11 13 11 9 0 15 -5 13 -11z m1292 -34 c0 -8
-11 -31 -25 -51 -14 -21 -28 -49 -31 -63 -3 -14 -10 -37 -15 -50 -7 -18 -7
-26 3 -33 10 -6 10 -10 -2 -18 -11 -7 -16 -5 -18 5 -2 8 -12 15 -23 15 -12 0
-18 6 -17 18 1 9 -3 36 -10 60 -14 46 -5 72 24 72 7 0 18 9 24 20 6 11 21 20
35 20 13 0 27 5 30 10 9 15 25 12 25 -5z m-1280 1 c0 -3 -4 -8 -10 -11 -5 -3
-10 -1 -10 4 0 6 5 11 10 11 6 0 10 -2 10 -4z m-6067 -37 c-9 -9 -12 -7 -10 9
1 14 5 18 11 12 7 -7 6 -14 -1 -21z m6073 -63 c-6 -31 -62 -106 -79 -106 -12
0 -7 64 6 80 11 15 68 59 76 60 2 0 0 -15 -3 -34z m1000 18 c-3 -9 -6 -25 -6
-36 0 -11 -5 -18 -12 -16 -24 8 -11 68 14 68 6 0 7 -7 4 -16z m-566 -66 c0
-19 -18 -44 -25 -36 -4 3 0 15 7 27 15 24 18 26 18 9z m950 -42 c0 -18 -17
-39 -41 -52 -16 -8 -29 -20 -29 -27 0 -7 -15 -17 -32 -22 -25 -8 -33 -16 -32
-32 1 -34 -31 -34 -76 0 -33 26 -37 33 -24 40 9 5 31 9 50 9 26 0 44 10 81 44
32 31 55 44 75 44 15 0 28 -2 28 -4z m-110 -18 c0 -4 -6 -8 -14 -8 -8 0 -17 4
-20 8 -2 4 4 8 15 8 10 0 19 -4 19 -8z m-156 -45 c-9 -7 -21 -10 -26 -7 -14 9
1 23 23 21 19 -1 19 -2 3 -14z m-304 -7 c0 -3 -4 -8 -10 -11 -5 -3 -10 -1 -10
4 0 6 5 11 10 11 6 0 10 -2 10 -4z m563 -36 c10 0 15 -4 12 -10 -8 -12 -55
-13 -74 -1 -11 7 -10 11 5 19 12 7 23 7 29 1 5 -5 17 -9 28 -9z m-565 -35 c-3
-3 -9 2 -12 12 -6 14 -5 15 5 6 7 -7 10 -15 7 -18z m-28 1 c0 -11 -19 -15 -25
-6 -3 5 1 10 9 10 9 0 16 -2 16 -4z m548 -25 c6 -1 12 -8 12 -16 0 -12 -11
-15 -44 -13 -39 1 -44 4 -36 18 5 10 19 16 32 14 13 -1 29 -3 36 -3z m-558
-20 c0 -17 -12 -41 -21 -41 -10 0 -12 33 -2 43 9 10 23 9 23 -2z m-6870 -110
c0 -5 -6 -14 -14 -20 -12 -10 -14 -9 -11 6 2 10 4 19 4 21 2 6 21 1 21 -7z
m1165 -79 c-6 -15 -8 -15 -15 3 -4 11 -2 28 4 38 10 17 11 16 14 -3 2 -12 0
-29 -3 -38z m4605 32 c0 -8 -4 -12 -10 -9 -5 3 -10 10 -10 16 0 5 5 9 10 9 6
0 10 -7 10 -16z m-6165 -84 c-3 -5 -13 -10 -21 -10 -8 0 -12 5 -9 10 3 6 13
10 21 10 8 0 12 -4 9 -10z m6032 -42 c-3 -7 -5 -2 -5 12 0 14 2 19 5 13 2 -7
2 -19 0 -25z m-4557 -32 c0 -3 -4 -8 -10 -11 -5 -3 -10 -1 -10 4 0 6 5 11 10
11 6 0 10 -2 10 -4z m50 -1 c0 -2 -10 -10 -22 -16 -21 -11 -22 -11 -9 4 13 16
31 23 31 12z m4560 -5 c0 -5 -4 -10 -10 -10 -5 0 -10 5 -10 10 0 6 5 10 10 10
6 0 10 -4 10 -10z m47 -35 c9 -25 -4 -29 -17 -6 -7 15 -7 21 0 21 6 0 13 -7
17 -15z m-6137 -26 c0 -5 -7 -9 -15 -9 -9 0 -12 6 -9 15 6 15 24 11 24 -6z
m6164 -455 c3 -29 -9 -54 -25 -54 -12 0 -11 33 1 66 12 31 20 28 24 -12z m128
-11 c10 -46 -36 -123 -74 -123 -10 0 -18 -5 -18 -12 0 -8 -3 -8 -9 -2 -10 9
15 115 32 142 13 19 65 15 69 -5z m28 -3 c0 -5 -2 -10 -4 -10 -3 0 -8 5 -11
10 -3 6 -1 10 4 10 6 0 11 -4 11 -10z m-2300 -15 c0 -8 -4 -15 -10 -15 -5 0
-10 7 -10 15 0 8 5 15 10 15 6 0 10 -7 10 -15z m-2343 -47 c-3 -8 -6 -5 -6 6
-1 11 2 17 5 13 3 -3 4 -12 1 -19z m2323 3 c0 -11 -9 -23 -21 -26 -31 -10 -37
4 -10 26 29 24 31 24 31 0z m-2235 -31 c-3 -5 -10 -10 -16 -10 -5 0 -9 5 -9
10 0 6 7 10 16 10 8 0 12 -4 9 -10z m-115 -40 c0 -5 -5 -10 -11 -10 -5 0 -7 5
-4 10 3 6 8 10 11 10 2 0 4 -4 4 -10z m17 -32 c-3 -8 -6 -5 -6 6 -1 11 2 17 5
13 3 -3 4 -12 1 -19z m-3 -82 c-3 -8 -21 -14 -45 -14 -47 -1 -52 15 -6 21 17
2 37 5 44 5 7 1 10 -4 7 -12z m3226 -126 c0 -5 -5 -10 -11 -10 -5 0 -7 5 -4
10 3 6 8 10 11 10 2 0 4 -4 4 -10z m-4776 -96 c4 -10 1 -14 -6 -12 -15 5 -23
28 -10 28 5 0 13 -7 16 -16z m6379 -80 c48 -55 52 -73 19 -80 -15 -3 -39 -10
-54 -16 -15 -5 -32 -7 -39 -2 -8 4 -10 3 -5 -4 4 -7 1 -12 -7 -12 -18 0 -34
35 -42 93 l-7 46 48 4 c27 2 50 4 52 5 1 1 17 -14 35 -34z m61 -10 c3 -8 2
-12 -4 -9 -6 3 -10 10 -10 16 0 14 7 11 14 -7z m211 -87 c22 -4 23 -9 11 -49
-6 -21 -15 -27 -46 -30 -34 -3 -40 0 -45 19 -3 13 -10 23 -15 23 -6 0 -10 12
-10 26 0 25 2 26 43 21 23 -3 51 -8 62 -10z m-487 -29 c18 -18 14 -46 -10 -70
-22 -22 -90 -60 -96 -53 -2 1 4 26 14 54 11 35 25 55 43 65 34 18 35 18 49 4z
m-128 -174 c0 -8 -5 -12 -10 -9 -6 4 -8 11 -5 16 9 14 15 11 15 -7z m-3403
-36 c-3 -8 -6 -5 -6 6 -1 11 2 17 5 13 3 -3 4 -12 1 -19z m3373 8 c0 -2 -7 -6
-15 -10 -8 -3 -15 -1 -15 4 0 6 7 10 15 10 8 0 15 -2 15 -4z m127 -2 c-3 -3
-12 -4 -19 -1 -8 3 -5 6 6 6 11 1 17 -2 13 -5z m-32 -14 c3 -5 1 -10 -4 -10
-6 0 -11 5 -11 10 0 6 2 10 4 10 3 0 8 -4 11 -10z m336 -70 c6 0 7 -5 4 -10
-5 -8 -11 -7 -20 0 -8 7 -18 9 -24 6 -5 -3 -7 3 -4 14 5 17 7 17 20 5 8 -8 19
-15 24 -15z m669 -53 c0 -8 -15 -12 -45 -12 -43 0 -52 4 -38 18 12 13 83 8 83
-6z m30 4 c0 -6 -4 -13 -10 -16 -5 -3 -10 1 -10 9 0 9 5 16 10 16 6 0 10 -4
10 -9z m62 -73 c-14 -14 -16 -42 -2 -33 12 7 -9 -41 -34 -78 -28 -42 -113 -77
-128 -53 -5 6 -8 2 -8 -10 0 -12 -7 -25 -16 -28 -8 -3 -12 -2 -9 3 3 5 1 12
-5 16 -13 8 -13 48 2 99 15 55 25 66 58 66 14 0 30 3 34 7 4 4 27 6 51 4 27
-1 45 2 45 8 0 6 5 11 12 11 9 0 9 -3 0 -12z m-2915 -30 c-3 -8 -6 -5 -6 6 -1
11 2 17 5 13 3 -3 4 -12 1 -19z m180 -41 c3 8 11 9 21 4 93 -44 109 -50 137
-44 17 3 27 2 23 -2 -4 -4 2 -16 12 -27 14 -15 26 -18 48 -13 29 6 62 -13 62
-36 0 -6 4 -8 8 -5 11 7 45 -52 37 -64 -4 -6 -11 -8 -16 -5 -5 4 -9 -21 -9
-58 0 -61 -1 -65 -22 -65 -32 0 -110 -21 -125 -34 -10 -8 -13 -2 -15 28 l-1
39 -4 -39 c-3 -21 -13 -47 -23 -58 -15 -17 -21 -18 -39 -6 -12 7 -19 19 -16
27 3 8 0 18 -7 23 -10 6 -10 8 0 8 6 0 12 9 12 20 0 11 5 20 11 20 5 0 7 5 4
10 -4 6 -11 7 -17 4 -7 -5 -8 -2 -3 5 8 14 -23 91 -37 91 -5 0 -16 7 -24 15
-9 8 -27 15 -41 15 -15 0 -33 10 -44 25 -12 14 -26 22 -34 18 -9 -3 -15 1 -15
11 0 9 -7 17 -15 17 -8 1 -18 3 -22 4 -5 2 -18 6 -30 10 -26 8 -39 35 -18 35
8 0 15 7 15 15 0 8 7 15 16 15 9 0 14 6 11 13 -4 10 15 8 76 -7 60 -16 81 -18
84 -9z m1896 3 c18 -16 38 -30 45 -30 10 0 12 -9 7 -32 -9 -39 -18 -47 -51
-40 -13 2 -31 -1 -39 -8 -12 -10 -15 -9 -15 4 0 9 -6 16 -14 16 -17 0 -27 65
-15 98 12 31 44 28 82 -8z m257 -110 c0 -5 -9 -6 -20 -3 -22 6 -23 8 -14 41
l7 23 13 -27 c8 -14 14 -30 14 -34z m1040 51 c0 -6 -4 -13 -10 -16 -5 -3 -10
1 -10 9 0 9 5 16 10 16 6 0 10 -4 10 -9z m-1122 -48 c-14 -18 -19 -12 -11 16
4 16 8 19 14 10 4 -7 3 -19 -3 -26z m-333 -3 c0 -7 -6 -15 -12 -17 -8 -3 -13
4 -13 17 0 13 5 20 13 18 6 -3 12 -11 12 -18z m1489 14 c20 -8 9 -34 -15 -34
-18 0 -26 20 -12 33 8 8 8 8 27 1z m-977 -26 c-3 -8 -6 -5 -6 6 -1 11 2 17 5
13 3 -3 4 -12 1 -19z m213 1 c0 -5 -4 -9 -10 -9 -5 0 -10 7 -10 16 0 8 5 12
10 9 6 -3 10 -10 10 -16z m-403 -31 c-3 -8 -6 -5 -6 6 -1 11 2 17 5 13 3 -3 4
-12 1 -19z m453 -103 c0 -8 -2 -15 -4 -15 -2 0 -6 7 -10 15 -3 8 -1 15 4 15 6
0 10 -7 10 -15z m-2620 -12 c0 -10 -6 -13 -16 -9 -9 3 -20 6 -25 6 -21 0 -7
15 16 16 16 1 25 -3 25 -13z m-476 -39 c9 -23 8 -24 -14 -24 -19 0 -27 20 -13
33 11 11 20 8 27 -9z m907 -60 c9 -12 9 -15 2 -10 -9 5 -13 0 -13 -18 0 -14
-5 -28 -11 -32 -8 -5 -10 3 -7 25 3 19 -1 36 -9 42 -7 6 -13 16 -13 21 0 12
33 -6 51 -28z m-77 11 c3 -9 0 -15 -9 -15 -8 0 -15 -5 -15 -12 0 -6 -3 -9 -6
-5 -8 7 5 47 16 47 4 0 10 -7 14 -15z m36 -30 c0 -8 -4 -15 -10 -15 -5 0 -10
7 -10 15 0 8 5 15 10 15 6 0 10 -7 10 -15z m-123 -37 c-3 -7 -5 -2 -5 12 0 14
2 19 5 13 2 -7 2 -19 0 -25z m74 -6 c-9 -17 -11 -24 -11 -42 0 -5 -4 -10 -10
-10 -14 0 -13 36 2 59 15 24 32 17 19 -7z m49 -13 c0 -5 -4 -9 -10 -9 -5 0
-10 7 -10 16 0 8 5 12 10 9 6 -3 10 -10 10 -16z m-1351 -1768 c9 -6 10 -11 2
-15 -13 -8 -31 1 -31 15 0 11 11 11 29 0z m-2352 -73 c-3 -8 -6 -5 -6 6 -1 11
2 17 5 13 3 -3 4 -12 1 -19z m0 -60 c-3 -7 -5 -2 -5 12 0 14 2 19 5 13 2 -7 2
-19 0 -25z m2566 -60 c24 -12 34 -32 13 -28 -15 3 -26 -24 -19 -45 5 -17 4
-18 -10 -6 -12 9 -24 10 -44 3 -26 -9 -27 -10 -8 -18 27 -11 44 -35 37 -53 -3
-9 -1 -12 5 -8 16 10 43 -3 43 -19 0 -17 -7 -17 -49 -3 -17 6 -31 17 -31 25 0
8 -7 17 -15 20 -8 4 -15 12 -15 19 0 6 -9 20 -20 30 -11 10 -17 22 -14 26 3 5
-2 9 -11 9 -34 0 -7 24 39 36 26 7 50 15 54 18 8 9 15 8 45 -6z m-149 -66 c-1
-7 -2 -23 -2 -37 -1 -14 -6 -25 -12 -25 -20 0 -47 33 -43 51 7 27 59 37 57 11z
m-274 -152 c10 -6 12 -12 5 -19 -7 -7 -14 -4 -23 9 -13 21 -6 25 18 10z m1030
-79 c0 -11 -4 -23 -10 -26 -5 -3 -10 -15 -10 -26 0 -10 -5 -19 -11 -19 -7 0
-18 -8 -26 -17 -12 -16 -13 -14 -7 17 3 19 10 39 15 45 14 15 10 33 -8 38 -10
3 -1 5 20 6 30 1 37 -2 37 -18z m121 -1 c-26 -22 -41 -25 -41 -9 0 6 -9 8 -20
4 -11 -3 -20 -2 -20 4 0 9 30 17 80 19 l25 1 -24 -19z m-41 -40 c0 -5 -4 -10
-10 -10 -5 0 -10 5 -10 10 0 6 5 10 10 10 6 0 10 -4 10 -10z m-230 -417 c0 -5
-5 -15 -10 -23 -9 -13 -11 -13 -20 0 -9 13 -10 13 -11 0 0 -10 -2 -11 -6 -2
-2 6 -11 12 -19 12 -8 0 -14 5 -14 10 0 6 18 10 40 10 22 0 40 -3 40 -7z
m-353 -19 c-3 -3 -12 -4 -19 -1 -8 3 -5 6 6 6 11 1 17 -2 13 -5z m-187 -1004
c0 -5 -4 -10 -10 -10 -5 0 -10 5 -10 10 0 6 5 10 10 10 6 0 10 -4 10 -10z
m-23 -16 c39 -11 36 -34 -7 -51 -22 -9 -37 -20 -34 -24 3 -5 -1 -12 -10 -15
-8 -3 -12 -12 -9 -20 5 -14 -18 -44 -36 -44 -18 0 -31 -36 -18 -49 9 -9 7 -13
-10 -17 -12 -4 -25 -15 -28 -25 -4 -11 -10 -17 -14 -14 -5 2 -19 -4 -31 -15
-13 -11 -28 -20 -33 -20 -6 0 -18 -7 -27 -15 -20 -18 -136 -27 -165 -12 -13 7
-20 7 -23 -2 -2 -6 -10 -11 -18 -11 -14 0 -18 28 -16 138 0 28 -4 52 -9 52 -6
0 -7 5 -3 11 3 6 17 8 30 5 19 -5 24 -2 24 14 0 12 7 20 18 21 9 1 22 2 27 4
6 1 18 3 28 3 9 1 26 11 37 22 12 12 20 15 20 8 1 -8 7 -5 15 6 11 15 25 18
72 16 94 -3 130 3 152 24 16 17 33 19 68 10z m-1077 -263 c0 -18 -18 -21 -30
-6 -10 13 -9 15 9 15 11 0 21 -4 21 -9z"/>
<path d="M8560 8266 c0 -9 5 -16 10 -16 6 0 10 4 10 9 0 6 -4 13 -10 16 -5 3
-10 -1 -10 -9z"/>
<path d="M8630 8204 c0 -8 5 -12 10 -9 6 3 10 10 10 16 0 5 -4 9 -10 9 -5 0
-10 -7 -10 -16z"/>
<path d="M7171 8107 c2 -1 12 -9 22 -16 15 -12 17 -12 11 3 -3 9 -13 16 -22
16 -8 0 -13 -1 -11 -3z"/>
<path d="M6350 5090 c0 -5 5 -10 11 -10 5 0 7 5 4 10 -3 6 -8 10 -11 10 -2 0
-4 -4 -4 -10z"/>
<path d="M4780 1086 c0 -9 5 -16 10 -16 6 0 10 4 10 9 0 6 -4 13 -10 16 -5 3
-10 -1 -10 -9z"/>
<path d="M3400 9501 c0 -19 37 -54 49 -46 6 3 11 -1 11 -11 0 -10 3 -15 6 -12
11 11 -8 78 -22 78 -8 0 -14 -5 -14 -11 0 -8 -5 -8 -15 1 -11 9 -15 9 -15 1z"/>
<path d="M3481 9494 c0 -11 3 -14 6 -6 3 7 2 16 -1 19 -3 4 -6 -2 -5 -13z"/>
<path d="M3495 9390 c-3 -5 -1 -10 4 -10 6 0 11 5 11 10 0 6 -2 10 -4 10 -3 0
-8 -4 -11 -10z"/>
<path d="M3355 9160 c-3 -5 -1 -10 4 -10 6 0 11 5 11 10 0 6 -2 10 -4 10 -3 0
-8 -4 -11 -10z"/>
<path d="M7085 8910 c3 -5 13 -10 21 -10 8 0 14 5 14 10 0 6 -9 10 -21 10 -11
0 -17 -4 -14 -10z"/>
<path d="M6950 8885 c-7 -9 -8 -15 -2 -15 5 0 12 7 16 15 3 8 4 15 2 15 -2 0
-9 -7 -16 -15z"/>
<path d="M6750 8830 c0 -16 5 -30 10 -30 6 0 10 14 10 30 0 17 -4 30 -10 30
-5 0 -10 -13 -10 -30z"/>
<path d="M6858 8853 c7 -3 16 -2 19 1 4 3 -2 6 -13 5 -11 0 -14 -3 -6 -6z"/>
<path d="M6800 8830 c0 -5 5 -10 10 -10 6 0 10 5 10 10 0 6 -4 10 -10 10 -5 0
-10 -4 -10 -10z"/>
<path d="M6780 8810 c0 -11 4 -20 9 -20 5 0 7 9 4 20 -3 11 -7 20 -9 20 -2 0
-4 -9 -4 -20z"/>
<path d="M6723 8774 c-8 -20 8 -36 26 -25 15 10 8 41 -9 41 -6 0 -13 -7 -17
-16z"/>
<path d="M6825 8770 c3 -5 13 -10 21 -10 8 0 12 5 9 10 -3 6 -13 10 -21 10 -8
0 -12 -4 -9 -10z"/>
<path d="M6844 8724 c3 -9 6 -20 6 -25 0 -5 7 -9 15 -9 18 0 19 9 1 33 -16 21
-30 22 -22 1z"/>
<path d="M8010 8366 c0 -9 30 -14 35 -6 4 6 -3 10 -14 10 -12 0 -21 -2 -21 -4z"/>
<path d="M8105 8320 c-28 -7 -27 -8 13 -9 23 0 42 4 42 9 0 11 -11 11 -55 0z"/>
<path d="M8010 8310 c-18 -12 -2 -12 25 0 13 6 15 9 5 9 -8 0 -22 -4 -30 -9z"/>
<path d="M8162 8270 c0 -14 2 -19 5 -12 2 6 2 18 0 25 -3 6 -5 1 -5 -13z"/>
<path d="M8190 8271 c0 -12 5 -21 10 -21 6 0 10 6 10 14 0 8 -4 18 -10 21 -5
3 -10 -3 -10 -14z"/>
<path d="M8140 8190 c0 -5 4 -10 9 -10 6 0 13 5 16 10 3 6 -1 10 -9 10 -9 0
-16 -4 -16 -10z"/>
<path d="M8142 8125 c0 -16 2 -22 5 -12 2 9 2 23 0 30 -3 6 -5 -1 -5 -18z"/>
<path d="M8371 8074 c0 -11 3 -14 6 -6 3 7 2 16 -1 19 -3 4 -6 -2 -5 -13z"/>
<path d="M8445 7840 c-3 -5 1 -10 10 -10 9 0 13 5 10 10 -3 6 -8 10 -10 10 -2
0 -7 -4 -10 -10z"/>
<path d="M1925 7740 c-3 -5 -1 -10 4 -10 6 0 11 5 11 10 0 6 -2 10 -4 10 -3 0
-8 -4 -11 -10z"/>
<path d="M1484 7668 c-21 -24 -45 -71 -50 -98 -2 -8 6 -23 17 -33 10 -10 19
-23 19 -30 0 -7 19 -31 42 -52 l42 -40 -31 40 c-16 22 -35 50 -42 62 -23 45
-8 93 30 93 23 0 34 47 15 65 -19 19 -19 19 -42 -7z"/>
<path d="M8660 7650 c0 -5 5 -10 11 -10 5 0 7 5 4 10 -3 6 -8 10 -11 10 -2 0
-4 -4 -4 -10z"/>
<path d="M8722 7636 c-9 -19 -8 -25 4 -30 10 -4 14 3 14 24 0 36 -3 37 -18 6z"/>
<path d="M8800 7576 c0 -9 5 -16 10 -16 6 0 10 4 10 9 0 6 -4 13 -10 16 -5 3
-10 -1 -10 -9z"/>
<path d="M8800 7530 c0 -5 7 -7 15 -4 8 4 15 8 15 10 0 2 -7 4 -15 4 -8 0 -15
-4 -15 -10z"/>
<path d="M1567 7499 c7 -7 15 -10 18 -7 3 3 -2 9 -12 12 -14 6 -15 5 -6 -5z"/>
<path d="M8801 7494 c0 -11 3 -14 6 -6 3 7 2 16 -1 19 -3 4 -6 -2 -5 -13z"/>
<path d="M1361 7474 c0 -11 3 -14 6 -6 3 7 2 16 -1 19 -3 4 -6 -2 -5 -13z"/>
<path d="M8960 7234 c0 -8 5 -12 10 -9 6 4 8 11 5 16 -9 14 -15 11 -15 -7z"/>
<path d="M7910 7182 c0 -23 5 -42 10 -42 7 0 8 14 4 38 -9 51 -14 53 -14 4z"/>
<path d="M1195 7140 c3 -5 14 -10 23 -10 15 0 15 2 2 10 -20 13 -33 13 -25 0z"/>
<path d="M8495 7054 c-15 -15 -17 -29 -12 -89 5 -50 3 -75 -6 -85 -10 -10 -9
-12 3 -8 15 5 22 28 42 126 12 62 1 84 -27 56z"/>
<path d="M1000 7009 c0 -5 9 -9 20 -9 11 0 20 2 20 4 0 2 -9 6 -20 9 -11 3
-20 1 -20 -4z"/>
<path d="M1068 7003 c7 -3 16 -2 19 1 4 3 -2 6 -13 5 -11 0 -14 -3 -6 -6z"/>
<path d="M1300 6940 c0 -5 5 -10 11 -10 5 0 7 5 4 10 -3 6 -8 10 -11 10 -2 0
-4 -4 -4 -10z"/>
<path d="M8740 6914 c0 -8 5 -12 10 -9 6 4 8 11 5 16 -9 14 -15 11 -15 -7z"/>
<path d="M9485 6910 c-3 -5 1 -10 9 -10 9 0 16 5 16 10 0 6 -4 10 -9 10 -6 0
-13 -4 -16 -10z"/>
<path d="M9048 6883 c6 -2 18 -2 25 0 6 3 1 5 -13 5 -14 0 -19 -2 -12 -5z"/>
<path d="M8792 6848 c-18 -18 -15 -28 7 -28 26 0 34 15 18 29 -10 8 -17 7 -25
-1z"/>
<path d="M1441 6734 c0 -11 3 -14 6 -6 3 7 2 16 -1 19 -3 4 -6 -2 -5 -13z"/>
<path d="M8110 6715 c0 -8 5 -15 11 -15 7 0 17 -7 23 -15 7 -9 16 -12 25 -6
17 11 6 32 -13 25 -7 -3 -16 2 -19 10 -8 20 -27 21 -27 1z"/>
<path d="M8907 6543 c-4 -3 -7 -11 -7 -17 0 -6 5 -5 12 2 6 6 9 14 7 17 -3 3
-9 2 -12 -2z"/>
<path d="M8853 6517 c3 -7 -4 -19 -14 -25 -10 -7 -19 -18 -19 -25 -1 -6 -12
-25 -25 -42 -19 -23 -27 -27 -37 -17 -20 20 -24 14 -23 -30 0 -24 -4 -49 -9
-56 -7 -10 -6 -13 5 -12 37 6 49 -1 49 -26 0 -26 -42 -76 -70 -82 -24 -6 -40
-36 -35 -66 3 -16 5 -37 5 -47 0 -28 29 -23 36 6 3 14 12 25 19 25 15 0 25 22
25 56 0 14 7 27 18 31 31 12 72 59 60 71 -5 5 -12 30 -14 55 -3 34 2 55 22 91
14 25 30 48 35 51 5 4 9 13 9 21 0 8 -4 12 -10 9 -5 -3 -10 -2 -10 4 0 5 6 12
13 14 6 3 1 6 -12 6 -15 1 -21 -3 -18 -12z"/>
<path d="M8650 6225 c-17 -21 -9 -27 13 -10 10 7 14 16 9 19 -5 3 -15 -1 -22
-9z"/>
<path d="M8847 6193 c-13 -13 -19 -14 -29 -5 -22 22 -28 12 -25 -44 2 -48 6
-59 27 -72 14 -9 22 -12 18 -8 -4 5 -3 17 2 27 7 12 7 20 0 24 -18 11 -10 26
10 20 16 -5 20 -2 20 14 0 25 4 26 36 5 38 -26 40 -9 2 25 -39 36 -39 36 -61
14z"/>
<path d="M9032 5695 c0 -16 2 -22 5 -12 2 9 2 23 0 30 -3 6 -5 -1 -5 -18z"/>
<path d="M9025 5600 c-3 -5 -1 -10 4 -10 6 0 11 5 11 10 0 6 -2 10 -4 10 -3 0
-8 -4 -11 -10z"/>
<path d="M5245 5584 c-9 -9 -14 -18 -13 -20 7 -6 48 8 48 17 0 17 -19 19 -35
3z"/>
<path d="M7700 5500 c0 -11 5 -20 10 -20 6 0 10 9 10 20 0 11 -4 20 -10 20 -5
0 -10 -9 -10 -20z"/>
<path d="M8882 5291 c-11 -7 -11 -9 1 -14 16 -6 27 0 27 15 0 10 -11 10 -28
-1z"/>
<path d="M9290 5285 c0 -8 5 -15 10 -15 6 0 10 7 10 15 0 8 -4 15 -10 15 -5 0
-10 -7 -10 -15z"/>
<path d="M4160 5175 c0 -8 2 -15 4 -15 2 0 6 7 10 15 3 8 1 15 -4 15 -6 0 -10
-7 -10 -15z"/>
<path d="M9458 5183 c7 -3 16 -2 19 1 4 3 -2 6 -13 5 -11 0 -14 -3 -6 -6z"/>
<path d="M9390 5150 c0 -5 5 -10 10 -10 6 0 10 5 10 10 0 6 -4 10 -10 10 -5 0
-10 -4 -10 -10z"/>
<path d="M7480 5055 c-30 -9 -37 -13 -20 -13 14 0 43 5 65 13 52 17 14 17 -45
0z"/>
<path d="M7660 5031 c0 -25 6 -27 13 -6 4 8 2 17 -3 20 -6 4 -10 -3 -10 -14z"/>
<path d="M2560 5025 c0 -8 2 -15 4 -15 2 0 6 7 10 15 3 8 1 15 -4 15 -6 0 -10
-7 -10 -15z"/>
<path d="M2640 5016 c0 -8 5 -18 10 -21 6 -4 8 -10 5 -15 -9 -15 7 -40 26 -40
10 0 19 5 19 10 0 6 -4 10 -10 10 -5 0 -10 9 -10 20 0 11 -5 20 -11 20 -6 0
-9 7 -5 15 3 9 0 15 -9 15 -8 0 -15 -6 -15 -14z"/>
<path d="M2665 4920 c3 -5 13 -10 21 -10 8 0 14 5 14 10 0 6 -9 10 -21 10 -11
0 -17 -4 -14 -10z"/>
<path d="M8810 4820 c-23 -23 -24 -29 -5 -54 16 -21 39 -12 32 13 -2 9 2 22
10 29 7 7 13 17 13 22 0 17 -29 11 -50 -10z"/>
<path d="M5950 4818 c0 -4 7 -8 15 -8 8 0 15 -6 15 -12 0 -9 4 -8 10 2 9 13
10 13 10 0 0 -12 9 -15 39 -12 31 3 40 0 43 -14 3 -16 4 -16 17 -1 12 15 11
17 -3 17 -9 0 -16 7 -16 15 0 18 -17 20 -23 3 -3 -10 -10 -10 -28 1 -27 16
-79 22 -79 9z"/>
<path d="M8930 4810 c0 -5 5 -10 10 -10 6 0 10 5 10 10 0 6 -4 10 -10 10 -5 0
-10 -4 -10 -10z"/>
<path d="M8965 4759 l0 -62 50 -13 c28 -7 53 -13 56 -14 3 0 15 -9 27 -20 12
-12 22 -16 22 -11 0 6 7 7 17 4 12 -5 14 -3 8 7 -6 9 -4 12 6 8 8 -3 22 -9 32
-13 10 -4 17 -3 17 4 0 6 17 11 40 11 22 0 40 4 40 10 0 5 14 7 33 4 30 -6 47
-19 67 -54 7 -11 12 -12 20 -4 9 9 8 19 -4 40 -8 16 -15 23 -16 16 0 -7 -5
-10 -10 -7 -8 5 -7 11 1 21 17 21 5 105 -17 121 -13 9 -20 10 -25 2 -5 -8 -21
-8 -55 -1 -55 11 -198 9 -228 -4 -13 -5 -21 -3 -24 4 -2 7 -16 12 -31 12 -26
0 -27 -1 -26 -61z m125 22 c15 -30 12 -33 -10 -11 -22 22 -25 30 -10 30 5 0
14 -9 20 -19z m106 -36 c8 -33 5 -35 -33 -19 -42 18 -44 44 -3 44 23 0 31 -5
36 -25z m174 21 c0 -3 -4 -8 -10 -11 -5 -3 -10 -1 -10 4 0 6 5 11 10 11 6 0
10 -2 10 -4z"/>
<path d="M3831 4774 c0 -11 3 -14 6 -6 3 7 2 16 -1 19 -3 4 -6 -2 -5 -13z"/>
<path d="M8940 4760 c0 -5 5 -10 10 -10 6 0 10 5 10 10 0 6 -4 10 -10 10 -5 0
-10 -4 -10 -10z"/>
<path d="M4771 4680 c0 -33 1 -34 11 -12 8 17 8 26 0 34 -9 9 -12 4 -11 -22z"/>
<path d="M3331 4644 c0 -11 3 -14 6 -6 3 7 2 16 -1 19 -3 4 -6 -2 -5 -13z"/>
<path d="M9048 4633 c7 -3 16 -2 19 1 4 3 -2 6 -13 5 -11 0 -14 -3 -6 -6z"/>
<path d="M8678 4547 c-2 -21 -1 -40 3 -42 10 -7 17 38 9 61 -5 14 -8 10 -12
-19z"/>
<path d="M9330 4490 c-12 -8 -10 -10 8 -10 13 0 20 4 17 10 -7 12 -6 12 -25 0z"/>
<path d="M8667 4483 c-4 -3 -7 -13 -7 -22 1 -13 3 -13 11 2 11 19 8 33 -4 20z"/>
<path d="M8875 4455 c-17 -16 -25 -35 -25 -60 0 -19 -1 -38 -2 -42 -2 -5 8
-10 22 -11 29 -4 52 -22 29 -22 -9 0 -24 -9 -34 -20 -10 -11 -24 -20 -31 -20
-7 0 -16 9 -19 20 -6 20 -16 25 -28 13 -4 -3 -2 -12 3 -18 15 -19 26 -110 12
-101 -15 9 -16 -26 -3 -71 7 -25 5 -40 -9 -68 -14 -27 -16 -43 -10 -60 7 -17
5 -27 -6 -36 -9 -7 -22 -25 -29 -40 -28 -52 23 -106 71 -74 20 13 26 11 66
-14 32 -20 54 -27 74 -24 25 4 26 2 11 -7 -9 -6 -15 -15 -12 -21 4 -5 -30 -9
-84 -9 -49 0 -93 -4 -96 -10 -3 -5 3 -10 15 -10 12 0 19 -4 16 -9 -3 -5 -15
-7 -26 -4 -21 6 -25 -3 -11 -26 11 -18 110 -34 216 -35 44 -1 85 -4 91 -8 14
-10 35 14 69 77 24 46 63 144 69 173 1 7 8 18 14 24 7 7 12 29 12 51 0 21 7
45 15 54 8 8 13 18 10 23 -7 12 13 108 32 148 8 18 12 40 9 49 -3 8 1 36 10
61 9 26 16 59 15 75 -1 19 3 27 15 27 12 0 10 6 -10 21 -18 14 -30 18 -39 11
-7 -5 -21 -6 -32 -2 -11 4 -33 3 -50 -1 -16 -5 -46 -9 -66 -9 -22 0 -45 -8
-59 -20 -13 -12 -30 -18 -37 -16 -7 3 -13 2 -13 -3 0 -4 -24 -7 -53 -7 -53 0
-53 0 -49 29 3 20 7 25 13 16 10 -17 23 -5 16 16 -10 24 -64 19 -92 -10z m361
-35 c-1 -16 -5 -30 -10 -30 -4 0 -5 -7 -2 -16 9 -24 -3 -37 -22 -22 -15 12
-16 11 -4 -4 16 -20 7 -58 -13 -58 -8 0 -21 -13 -31 -28 l-16 -29 -22 21 c-12
12 -21 24 -19 29 2 4 -1 7 -6 7 -6 0 -11 5 -11 10 0 6 7 10 15 10 9 0 18 7 21
15 6 15 105 122 115 124 3 0 6 -12 5 -29z m34 26 c0 -3 -4 -8 -10 -11 -5 -3
-10 -1 -10 4 0 6 5 11 10 11 6 0 10 -2 10 -4z m-263 -234 c-3 -21 -9 -26 -26
-25 -12 2 -20 -1 -17 -6 10 -15 -17 -28 -56 -26 -20 1 -36 -1 -35 -4 3 -8 -15
-10 -30 -4 -18 7 -16 23 3 23 9 0 28 8 42 18 15 10 34 22 42 26 8 4 26 13 39
21 31 18 43 11 38 -23z m107 13 c-4 -8 -7 -15 -9 -15 -2 0 -5 7 -9 15 -3 9 0
15 9 15 9 0 12 -6 9 -15z m22 -135 c20 0 17 -33 -4 -60 -20 -24 -45 -20 -36 5
5 12 0 14 -25 9 -20 -4 -31 -3 -31 5 0 6 5 11 10 11 6 0 10 6 10 14 0 9 8 12
25 8 21 -4 25 0 26 19 1 17 3 19 6 7 2 -10 11 -18 19 -18z m-36 -214 c0 -9
-30 -14 -35 -6 -4 6 3 10 14 10 12 0 21 -2 21 -4z m-90 -36 c0 -5 -5 -10 -11
-10 -5 0 -7 5 -4 10 3 6 8 10 11 10 2 0 4 -4 4 -10z"/>
<path d="M9115 4059 c-4 -6 -5 -12 -2 -15 2 -3 7 2 10 11 7 17 1 20 -8 4z"/>
<path d="M8651 4424 c0 -11 3 -14 6 -6 3 7 2 16 -1 19 -3 4 -6 -2 -5 -13z"/>
<path d="M8687 4396 c-3 -8 -2 -18 4 -22 16 -9 22 2 11 21 -8 15 -10 16 -15 1z"/>
<path d="M8660 4351 c-7 -15 -7 -21 0 -21 12 0 25 28 17 36 -3 3 -10 -4 -17
-15z"/>
<path d="M9398 4153 c7 -3 16 -2 19 1 4 3 -2 6 -13 5 -11 0 -14 -3 -6 -6z"/>
<path d="M7587 4100 c4 -16 9 -17 34 -8 35 12 30 22 -10 24 -23 1 -28 -2 -24
-16z"/>
<path d="M7540 4080 c0 -5 5 -10 10 -10 6 0 10 5 10 10 0 6 -4 10 -10 10 -5 0
-10 -4 -10 -10z"/>
<path d="M9260 4010 c-9 -16 -8 -22 5 -26 8 -4 15 -18 15 -34 0 -21 -6 -29
-24 -34 -22 -5 -24 -10 -19 -48 5 -36 4 -40 -11 -35 -13 5 -15 2 -9 -21 3 -14
6 -39 6 -55 0 -42 15 -18 27 43 6 30 15 57 20 58 17 6 11 19 -11 25 -27 7 -15
27 17 27 21 0 24 4 24 40 0 30 -4 40 -16 40 -11 0 -14 6 -9 20 8 26 -1 26 -15
0z"/>
<path d="M8571 3978 c-9 -24 -6 -38 8 -38 4 0 8 14 8 30 0 36 -5 38 -16 8z"/>
<path d="M8685 3800 c3 -5 8 -10 11 -10 2 0 4 5 4 10 0 6 -5 10 -11 10 -5 0
-7 -4 -4 -10z"/>
<path d="M2501 3784 c0 -11 3 -14 6 -6 3 7 2 16 -1 19 -3 4 -6 -2 -5 -13z"/>
<path d="M8640 3780 c0 -5 7 -10 16 -10 8 0 12 5 9 10 -3 6 -10 10 -16 10 -5
0 -9 -4 -9 -10z"/>
<path d="M8740 3781 c0 -5 5 -13 10 -16 6 -3 10 -2 10 4 0 5 -4 13 -10 16 -5
3 -10 2 -10 -4z"/>
<path d="M5141 3553 c-1 -13 4 -23 9 -23 6 0 8 -10 4 -24 -3 -13 -1 -27 5 -30
7 -5 11 4 11 23 0 16 5 33 10 36 13 8 13 25 1 25 -5 0 -11 -8 -14 -17 -3 -15
-6 -14 -15 7 -10 24 -11 24 -11 3z"/>
<path d="M2586 3465 c4 -8 8 -15 10 -15 2 0 4 7 4 15 0 8 -4 15 -10 15 -5 0
-7 -7 -4 -15z"/>
<path d="M4117 3243 c-17 -16 -3 -23 46 -22 28 1 44 3 35 6 -10 2 -18 9 -18
14 0 10 -53 12 -63 2z"/>
<path d="M2820 2958 c0 -28 16 -55 26 -45 4 4 3 12 -3 18 -6 6 -9 17 -7 24 3
7 1 16 -5 20 -7 4 -11 -3 -11 -17z"/>
<path d="M3520 2945 c0 -8 7 -15 15 -15 8 0 15 7 15 15 0 8 -7 15 -15 15 -8 0
-15 -7 -15 -15z"/>
<path d="M4228 2935 c-22 -15 -38 -34 -38 -45 0 -10 -4 -22 -10 -25 -5 -3 -10
-2 -10 3 0 6 -8 8 -19 5 -11 -3 -21 2 -24 11 -8 19 -59 22 -55 4 1 -7 -3 -23
-10 -35 -11 -21 -10 -23 8 -23 11 0 25 -8 32 -19 11 -18 12 -18 31 0 25 23 33
18 41 -22 6 -30 7 -31 24 -16 10 9 29 18 43 20 16 3 25 11 27 28 2 13 15 37
29 53 55 66 4 111 -69 61z"/>
<path d="M3411 2901 c-13 -18 -17 -30 -10 -29 7 2 15 -6 17 -17 6 -32 22 -42
23 -14 1 13 1 29 0 34 0 6 10 11 23 11 16 1 27 -6 34 -21 8 -18 61 -55 79 -55
10 0 1 29 -12 34 -8 3 -15 12 -15 21 0 9 -13 21 -30 26 -16 6 -30 16 -30 21 0
6 -11 8 -24 4 -15 -4 -26 -1 -28 6 -2 6 -14 -3 -27 -21z"/>
<path d="M3955 2910 c-10 -16 4 -30 31 -30 14 0 22 -4 19 -10 -3 -6 1 -7 9 -4
19 7 22 36 4 33 -31 -4 -59 2 -53 11 3 6 4 10 1 10 -3 0 -8 -4 -11 -10z"/>
<path d="M3475 2860 c3 -5 8 -10 11 -10 2 0 4 5 4 10 0 6 -5 10 -11 10 -5 0
-7 -4 -4 -10z"/>
<path d="M3726 2844 c-5 -13 -16 -16 -57 -12 -38 4 -52 2 -56 -9 -8 -21 10
-34 53 -38 35 -3 65 -10 87 -22 4 -2 7 1 7 6 0 6 -8 11 -17 12 -15 0 -15 2 2
9 11 5 14 9 8 9 -8 1 -11 11 -6 31 6 32 -10 42 -21 14z"/>
<path d="M5754 2839 c-3 -6 -1 -16 5 -22 8 -8 11 -5 11 11 0 24 -5 28 -16 11z"/>
<path d="M5248 2633 c7 -3 16 -2 19 1 4 3 -2 6 -13 5 -11 0 -14 -3 -6 -6z"/>
<path d="M4129 2556 c-2 -3 -72 -7 -154 -10 -83 -3 -152 -6 -155 -6 -3 0 3 -6
14 -12 17 -9 60 -14 224 -22 30 -1 57 -7 60 -13 13 -20 82 -38 100 -27 11 7
30 8 56 2 22 -5 45 -7 52 -4 8 3 16 1 19 -4 10 -16 22 -11 28 9 4 16 12 19 36
16 17 -2 31 -1 31 4 0 10 -135 48 -200 56 -30 3 -66 8 -80 11 -14 3 -28 3 -31
0z"/>
<path d="M5752 2419 c-15 -23 -15 -29 -2 -29 6 0 10 6 10 14 0 8 5 16 12 18 7
3 8 7 2 11 -5 3 -15 -3 -22 -14z"/>
<path d="M4876 2403 c-6 -14 -5 -15 5 -6 7 7 10 15 7 18 -3 3 -9 -2 -12 -12z"/>
<path d="M5810 2406 c0 -2 7 -9 15 -16 12 -10 15 -10 15 4 0 9 -7 16 -15 16
-8 0 -15 -2 -15 -4z"/>
<path d="M5037 2238 c-2 -7 -2 -29 1 -48 4 -33 4 -34 -11 -15 -9 11 -17 28
-17 38 0 17 -20 25 -20 8 0 -5 -12 -16 -26 -26 -24 -16 -26 -16 -31 4 -5 20
-39 38 -50 27 -4 -3 1 -6 10 -6 25 0 20 -32 -9 -53 -20 -15 -28 -16 -39 -7
-10 9 -15 9 -15 1 0 -7 -11 -8 -32 -4 -22 4 -29 3 -24 -5 4 -7 2 -10 -6 -8
-34 12 -170 15 -214 6 -27 -6 -55 -11 -61 -12 -7 -1 -13 -5 -13 -9 0 -5 -12
-4 -26 1 -14 6 -30 7 -36 4 -7 -5 -8 -2 -4 5 6 9 -2 11 -31 6 -30 -5 -35 -4
-23 5 12 9 9 10 -15 5 -16 -4 -33 -12 -37 -18 -6 -9 -11 -8 -18 3 -7 11 -10
12 -10 2 0 -29 21 -52 49 -52 27 0 57 -26 81 -69 12 -23 31 -27 58 -10 29 18
74 -8 84 -48 9 -36 19 -41 38 -18 7 8 19 15 27 15 9 0 13 8 11 23 -2 18 2 23
25 25 21 3 27 9 27 28 0 25 14 32 25 14 5 -7 18 -5 38 7 25 15 38 17 59 9 35
-12 118 18 126 46 3 11 10 17 18 14 10 -4 14 3 14 20 l0 26 19 -23 c17 -22 21
-22 45 -10 23 13 26 20 24 63 -2 51 -4 55 -11 36z"/>
<path d="M3447 2212 c1 -8 3 -16 3 -18 0 -2 5 -4 11 -4 5 0 7 5 3 12 -5 8 0 9
15 5 18 -4 20 -3 10 9 -8 10 -15 11 -24 4 -7 -6 -15 -7 -17 -3 -3 4 -3 2 -1
-5z"/>
<path d="M3230 2210 c0 -5 5 -10 11 -10 5 0 7 5 4 10 -3 6 -8 10 -11 10 -2 0
-4 -4 -4 -10z"/>
<path d="M5105 2080 c-3 -5 -1 -10 4 -10 6 0 11 5 11 10 0 6 -2 10 -4 10 -3 0
-8 -4 -11 -10z"/>
<path d="M5060 2000 c0 -5 5 -10 10 -10 6 0 10 5 10 10 0 6 -4 10 -10 10 -5 0
-10 -4 -10 -10z"/>
<path d="M4546 1911 c-4 -7 -5 -15 -2 -18 9 -9 19 4 14 18 -4 11 -6 11 -12 0z"/>
<path d="M4935 1790 c-3 -5 -2 -10 4 -10 5 0 13 5 16 10 3 6 2 10 -4 10 -5 0
-13 -4 -16 -10z"/>
<path d="M4506 1675 c-3 -8 -1 -15 4 -15 13 0 22 18 11 24 -5 3 -11 -1 -15 -9z"/>
<path d="M4545 1680 c-3 -5 -1 -10 4 -10 6 0 11 5 11 10 0 6 -2 10 -4 10 -3 0
-8 -4 -11 -10z"/>
<path d="M3995 1670 c3 -5 8 -10 11 -10 2 0 4 5 4 10 0 6 -5 10 -11 10 -5 0
-7 -4 -4 -10z"/>
<path d="M4530 1635 c0 -8 5 -15 10 -15 6 0 10 7 10 15 0 8 -4 15 -10 15 -5 0
-10 -7 -10 -15z"/>
<path d="M4143 1613 c22 -6 12 -23 -13 -23 -10 0 -22 -9 -25 -20 -3 -11 -11
-20 -16 -20 -6 0 -7 -5 -3 -11 4 -7 17 0 36 18 21 20 31 24 37 15 5 -9 11 -5
19 13 16 34 17 32 -20 32 -18 0 -25 -2 -15 -4z"/>
<path d="M5864 1387 c-4 -10 -2 -23 3 -28 14 -14 24 13 13 32 -7 11 -10 10
-16 -4z"/>
<path d="M6390 1128 c0 -12 3 -17 8 -12 4 5 11 12 15 15 5 3 2 9 -7 12 -12 5
-16 0 -16 -15z"/>
<path d="M9502 98 c-1 -14 -6 -28 -12 -30 -6 -2 -6 -9 0 -18 14 -22 22 -6 17
36 -2 26 -4 30 -5 12z"/>
<path d="M9433 25 c-20 -22 -16 -25 35 -25 l47 0 -30 20 c-35 23 -36 23 -52 5z"/>
</g>
</svg>
